<svg width="371" height="140" viewBox="0 0 371 140" fill="none" xmlns="http://www.w3.org/2000/svg">
<g clip-path="url(#clip0_1694_35621)">
<path d="M364.725 0.178955H6.27484C2.80934 0.178955 0 2.997 0 6.47324V133.146C0 136.622 2.80934 139.44 6.27484 139.44H364.725C368.191 139.44 371 136.622 371 133.146V6.47324C371 2.997 368.191 0.178955 364.725 0.178955Z" fill="white"/>
<path d="M82.3573 59.9749H33.7272C27.2294 59.9749 21.9619 65.2587 21.9619 71.7766C21.9619 78.2946 27.2294 83.5784 33.7272 83.5784H82.3573C88.8551 83.5784 94.1226 78.2946 94.1226 71.7766C94.1226 65.2587 88.8551 59.9749 82.3573 59.9749Z" fill="#EAEFF1"/>
<path d="M35.296 78.8575C39.1947 78.8575 42.3552 75.6872 42.3552 71.7764C42.3552 67.8656 39.1947 64.6953 35.296 64.6953C31.3973 64.6953 28.2368 67.8656 28.2368 71.7764C28.2368 75.6872 31.3973 78.8575 35.296 78.8575Z" fill="white"/>
<path d="M203.933 59.9749H123.928C117.431 59.9749 112.163 65.2587 112.163 71.7766C112.163 78.2946 117.431 83.5784 123.928 83.5784H203.933C210.43 83.5784 215.698 78.2946 215.698 71.7766C215.698 65.2587 210.43 59.9749 203.933 59.9749Z" fill="#EAEFF1"/>
<path d="M125.497 78.8575C129.395 78.8575 132.556 75.6872 132.556 71.7764C132.556 67.8656 129.395 64.6953 125.497 64.6953C121.598 64.6953 118.438 67.8656 118.438 71.7764C118.438 75.6872 121.598 78.8575 125.497 78.8575Z" fill="white"/>
<path d="M302.761 59.9749H236.875C230.377 59.9749 225.11 65.2587 225.11 71.7766C225.11 78.2946 230.377 83.5784 236.875 83.5784H302.761C309.259 83.5784 314.526 78.2946 314.526 71.7766C314.526 65.2587 309.259 59.9749 302.761 59.9749Z" fill="#EAEFF1"/>
<path d="M238.444 78.8575C242.343 78.8575 245.503 75.6872 245.503 71.7764C245.503 67.8656 242.343 64.6953 238.444 64.6953C234.545 64.6953 231.385 67.8656 231.385 71.7764C231.385 75.6872 234.545 78.8575 238.444 78.8575Z" fill="white"/>
<path d="M90.9852 93.8064H33.7272C27.2294 93.8064 21.9619 99.0902 21.9619 105.608C21.9619 112.126 27.2294 117.41 33.7272 117.41H90.9852C97.483 117.41 102.75 112.126 102.75 105.608C102.75 99.0902 97.483 93.8064 90.9852 93.8064Z" fill="#EAEFF1"/>
<path d="M35.296 112.689C39.1947 112.689 42.3552 109.519 42.3552 105.608C42.3552 101.698 39.1947 98.5273 35.296 98.5273C31.3973 98.5273 28.2368 101.698 28.2368 105.608C28.2368 109.519 31.3973 112.689 35.296 112.689Z" fill="white"/>
<path d="M199.227 93.8064H123.928C117.431 93.8064 112.163 99.0902 112.163 105.608C112.163 112.126 117.431 117.41 123.928 117.41H199.227C205.724 117.41 210.992 112.126 210.992 105.608C210.992 99.0902 205.724 93.8064 199.227 93.8064Z" fill="#EAEFF1"/>
<path d="M125.497 112.689C129.395 112.689 132.556 109.519 132.556 105.608C132.556 101.698 129.395 98.5273 125.497 98.5273C121.598 98.5273 118.438 101.698 118.438 105.608C118.438 109.519 121.598 112.689 125.497 112.689Z" fill="white"/>
<path d="M302.761 93.8064H236.875C230.377 93.8064 225.11 99.0902 225.11 105.608C225.11 112.126 230.377 117.41 236.875 117.41H302.761C309.259 117.41 314.526 112.126 314.526 105.608C314.526 99.0902 309.259 93.8064 302.761 93.8064Z" fill="#EAEFF1"/>
<path d="M238.444 112.689C242.343 112.689 245.503 109.519 245.503 105.608C245.503 101.698 242.343 98.5273 238.444 98.5273C234.545 98.5273 231.385 101.698 231.385 105.608C231.385 109.519 234.545 112.689 238.444 112.689Z" fill="white"/>
<path d="M23.1698 39.5867V24.9969H27.9286C29.4692 24.9969 30.8074 25.3102 31.9432 25.9369C33.0921 26.5505 33.9799 27.4057 34.6066 28.5024C35.2333 29.586 35.5466 30.8459 35.5466 32.282C35.5466 33.7051 35.2333 34.9715 34.6066 36.0812C33.9799 37.1779 33.0921 38.0396 31.9432 38.6662C30.8074 39.2799 29.4692 39.5867 27.9286 39.5867H23.1698ZM25.8331 37.2366H27.9873C28.9796 37.2366 29.8347 37.0343 30.5528 36.6295C31.2839 36.2118 31.8518 35.6373 32.2566 34.9062C32.6613 34.162 32.8637 33.2873 32.8637 32.282C32.8637 31.2636 32.6613 30.3889 32.2566 29.6578C31.8518 28.9267 31.2839 28.3588 30.5528 27.954C29.8347 27.5493 28.9796 27.3469 27.9873 27.3469H25.8331V37.2366ZM40.6438 39.8217C39.8997 39.8217 39.2534 39.6976 38.7051 39.4496C38.1567 39.2015 37.7324 38.849 37.4321 38.3921C37.1319 37.9221 36.9817 37.3803 36.9817 36.7666C36.9817 36.1791 37.1123 35.6569 37.3734 35.1999C37.6345 34.7299 38.0392 34.3383 38.5876 34.0249C39.1359 33.7116 39.8279 33.4896 40.6634 33.3591L44.1493 32.7912V34.7495L41.153 35.2587C40.6438 35.3501 40.2652 35.5133 40.0172 35.7483C39.7691 35.9833 39.6451 36.2901 39.6451 36.6687C39.6451 37.0343 39.7822 37.328 40.0563 37.55C40.3436 37.7589 40.6961 37.8633 41.1138 37.8633C41.6491 37.8633 42.1191 37.7523 42.5239 37.5304C42.9416 37.2954 43.2615 36.9755 43.4835 36.5708C43.7185 36.1661 43.836 35.7222 43.836 35.2391V32.4974C43.836 32.0405 43.6532 31.6618 43.2876 31.3616C42.9351 31.0482 42.4651 30.8916 41.8776 30.8916C41.3293 30.8916 40.8397 31.0417 40.4088 31.342C39.9911 31.6292 39.6842 32.0144 39.4884 32.4974L37.393 31.4791C37.6019 30.9177 37.9283 30.4346 38.3721 30.0299C38.8291 29.6121 39.3644 29.2857 39.978 29.0507C40.5916 28.8157 41.2575 28.6982 41.9755 28.6982C42.8503 28.6982 43.6205 28.8614 44.2864 29.1878C44.9522 29.5011 45.4679 29.945 45.8335 30.5195C46.2121 31.0809 46.4014 31.7402 46.4014 32.4974V39.5867H43.973V37.7654L44.5214 37.7262C44.2472 38.1832 43.9208 38.5683 43.5422 38.8817C43.1636 39.1819 42.7328 39.4169 42.2497 39.5867C41.7666 39.7433 41.2313 39.8217 40.6438 39.8217ZM52.8264 39.8217C51.6905 39.8217 50.6983 39.554 49.8497 39.0187C49.0141 38.4704 48.4396 37.7328 48.1263 36.8058L50.0455 35.8854C50.3197 36.4859 50.6983 36.9559 51.1813 37.2954C51.6775 37.6348 52.2258 37.8046 52.8264 37.8046C53.2964 37.8046 53.6684 37.7001 53.9426 37.4912C54.2168 37.2823 54.3539 37.0082 54.3539 36.6687C54.3539 36.4598 54.2951 36.2901 54.1776 36.1595C54.0732 36.0159 53.923 35.8984 53.7272 35.807C53.5444 35.7026 53.3421 35.6177 53.1201 35.5525L51.3772 35.0629C50.4763 34.8017 49.7909 34.4035 49.3209 33.8683C48.8639 33.333 48.6355 32.6998 48.6355 31.9687C48.6355 31.3159 48.7987 30.7479 49.1251 30.2649C49.4645 29.7688 49.928 29.3836 50.5155 29.1095C51.1161 28.8353 51.8015 28.6982 52.5718 28.6982C53.5771 28.6982 54.4648 28.9397 55.2351 29.4228C56.0054 29.9059 56.5538 30.5848 56.8802 31.4595L54.9218 32.3799C54.739 31.8969 54.4322 31.5117 54.0014 31.2245C53.5705 30.9373 53.0875 30.7936 52.5522 30.7936C52.1213 30.7936 51.7819 30.8916 51.5338 31.0874C51.2858 31.2832 51.1618 31.5378 51.1618 31.8512C51.1618 32.047 51.214 32.2167 51.3184 32.3603C51.4229 32.5039 51.5665 32.6214 51.7493 32.7128C51.9451 32.8042 52.167 32.8891 52.4151 32.9674L54.1189 33.4766C54.9936 33.7377 55.666 34.1294 56.136 34.6516C56.619 35.1738 56.8606 35.8136 56.8606 36.5708C56.8606 37.2105 56.6908 37.7785 56.3514 38.2746C56.012 38.7576 55.5419 39.1362 54.9414 39.4104C54.3408 39.6846 53.6358 39.8217 52.8264 39.8217ZM58.8321 39.5867V24.7619H61.3975V31.0286L61.045 30.6566C61.2931 30.0168 61.6978 29.5338 62.2592 29.2074C62.8337 28.8679 63.4995 28.6982 64.2567 28.6982C65.0401 28.6982 65.732 28.8679 66.3326 29.2074C66.9462 29.5468 67.4228 30.0234 67.7622 30.637C68.1016 31.2375 68.2714 31.936 68.2714 32.7324V39.5867H65.7059V33.3395C65.7059 32.8695 65.6145 32.4648 65.4318 32.1253C65.249 31.7859 64.9944 31.5248 64.668 31.342C64.3547 31.1461 63.9826 31.0482 63.5517 31.0482C63.1339 31.0482 62.7619 31.1461 62.4355 31.342C62.1091 31.5248 61.8545 31.7859 61.6717 32.1253C61.4889 32.4648 61.3975 32.8695 61.3975 33.3395V39.5867H58.8321ZM76.257 39.8217C75.4867 39.8217 74.7752 39.6715 74.1224 39.3713C73.4827 39.0579 72.9735 38.614 72.5949 38.0396L72.8495 37.5304V39.5867H70.4407V24.7619H73.0062V31.0482L72.6145 30.5195C72.98 29.945 73.4762 29.5011 74.1028 29.1878C74.7295 28.8614 75.4541 28.6982 76.2766 28.6982C77.2819 28.6982 78.1893 28.9463 78.9987 29.4424C79.8082 29.9385 80.4479 30.6043 80.9179 31.4399C81.401 32.2755 81.6425 33.2155 81.6425 34.2599C81.6425 35.2913 81.4075 36.2314 80.9375 37.08C80.4675 37.9286 79.8278 38.601 79.0183 39.0971C78.2089 39.5801 77.2884 39.8217 76.257 39.8217ZM75.9633 37.4716C76.5508 37.4716 77.073 37.3346 77.53 37.0604C77.9869 36.7862 78.3394 36.4076 78.5875 35.9245C78.8486 35.4415 78.9792 34.8866 78.9792 34.2599C78.9792 33.6333 78.8486 33.0849 78.5875 32.6149C78.3394 32.1319 77.9869 31.7532 77.53 31.4791C77.073 31.1918 76.5508 31.0482 75.9633 31.0482C75.4019 31.0482 74.8927 31.1853 74.4358 31.4595C73.9919 31.7337 73.6394 32.1188 73.3782 32.6149C73.1302 33.098 73.0062 33.6463 73.0062 34.2599C73.0062 34.8866 73.1302 35.4415 73.3782 35.9245C73.6394 36.4076 73.9919 36.7862 74.4358 37.0604C74.8927 37.3346 75.4019 37.4716 75.9633 37.4716ZM88.8077 39.8217C87.7632 39.8217 86.8101 39.5801 85.9485 39.0971C85.0998 38.614 84.4209 37.9547 83.9118 37.1191C83.4156 36.2836 83.1676 35.3305 83.1676 34.2599C83.1676 33.1894 83.4156 32.2363 83.9118 31.4007C84.4209 30.5652 85.0998 29.9059 85.9485 29.4228C86.7971 28.9397 87.7501 28.6982 88.8077 28.6982C89.8521 28.6982 90.7987 28.9397 91.6473 29.4228C92.4959 29.9059 93.1683 30.5652 93.6644 31.4007C94.1736 32.2232 94.4281 33.1763 94.4281 34.2599C94.4281 35.3305 94.1736 36.2836 93.6644 37.1191C93.1552 37.9547 92.4763 38.614 91.6277 39.0971C90.7791 39.5801 89.8391 39.8217 88.8077 39.8217ZM88.8077 37.4716C89.3821 37.4716 89.8848 37.3346 90.3156 37.0604C90.7595 36.7862 91.1055 36.4076 91.3535 35.9245C91.6146 35.4284 91.7452 34.8736 91.7452 34.2599C91.7452 33.6333 91.6146 33.0849 91.3535 32.6149C91.1055 32.1319 90.7595 31.7532 90.3156 31.4791C89.8848 31.1918 89.3821 31.0482 88.8077 31.0482C88.2202 31.0482 87.7044 31.1918 87.2606 31.4791C86.8167 31.7532 86.4642 32.1319 86.203 32.6149C85.955 33.0849 85.831 33.6333 85.831 34.2599C85.831 34.8736 85.955 35.4284 86.203 35.9245C86.4642 36.4076 86.8167 36.7862 87.2606 37.0604C87.7044 37.3346 88.2202 37.4716 88.8077 37.4716ZM99.6049 39.8217C98.8608 39.8217 98.2145 39.6976 97.6662 39.4496C97.1178 39.2015 96.6935 38.849 96.3932 38.3921C96.093 37.9221 95.9428 37.3803 95.9428 36.7666C95.9428 36.1791 96.0734 35.6569 96.3345 35.1999C96.5956 34.7299 97.0003 34.3383 97.5487 34.0249C98.097 33.7116 98.789 33.4896 99.6245 33.3591L103.11 32.7912V34.7495L100.114 35.2587C99.6049 35.3501 99.2263 35.5133 98.9783 35.7483C98.7302 35.9833 98.6062 36.2901 98.6062 36.6687C98.6062 37.0343 98.7433 37.328 99.0174 37.55C99.3047 37.7589 99.6572 37.8633 100.075 37.8633C100.61 37.8633 101.08 37.7523 101.485 37.5304C101.903 37.2954 102.223 36.9755 102.445 36.5708C102.68 36.1661 102.797 35.7222 102.797 35.2391V32.4974C102.797 32.0405 102.614 31.6618 102.249 31.3616C101.896 31.0482 101.426 30.8916 100.839 30.8916C100.29 30.8916 99.8008 31.0417 99.3699 31.342C98.9522 31.6292 98.6453 32.0144 98.4495 32.4974L96.3541 31.4791C96.563 30.9177 96.8894 30.4346 97.3332 30.0299C97.7902 29.6121 98.3255 29.2857 98.9391 29.0507C99.5527 28.8157 100.219 28.6982 100.937 28.6982C101.811 28.6982 102.582 28.8614 103.247 29.1878C103.913 29.5011 104.429 29.945 104.795 30.5195C105.173 31.0809 105.363 31.7402 105.363 32.4974V39.5867H102.934V37.7654L103.482 37.7262C103.208 38.1832 102.882 38.5683 102.503 38.8817C102.125 39.1819 101.694 39.4169 101.211 39.5867C100.728 39.7433 100.192 39.8217 99.6049 39.8217ZM107.734 39.5867V28.9332H110.142V31.3028L109.947 30.9503C110.195 30.1539 110.58 29.599 111.102 29.2857C111.637 28.9724 112.277 28.8157 113.021 28.8157H113.648V31.0874H112.727C111.996 31.0874 111.409 31.3159 110.965 31.7728C110.521 32.2167 110.299 32.8434 110.299 33.6528V39.5867H107.734ZM120.013 39.8217C118.982 39.8217 118.061 39.5801 117.252 39.0971C116.442 38.601 115.803 37.9286 115.333 37.08C114.863 36.2314 114.628 35.2913 114.628 34.2599C114.628 33.2155 114.863 32.2755 115.333 31.4399C115.803 30.6043 116.442 29.9385 117.252 29.4424C118.074 28.9463 118.988 28.6982 119.993 28.6982C120.803 28.6982 121.521 28.8614 122.148 29.1878C122.787 29.5011 123.29 29.945 123.656 30.5195L123.264 31.0482V24.7619H125.829V39.5867H123.401V37.5304L123.675 38.0396C123.31 38.614 122.8 39.0579 122.148 39.3713C121.495 39.6715 120.783 39.8217 120.013 39.8217ZM120.287 37.4716C120.875 37.4716 121.39 37.3346 121.834 37.0604C122.278 36.7862 122.624 36.4076 122.872 35.9245C123.133 35.4415 123.264 34.8866 123.264 34.2599C123.264 33.6463 123.133 33.098 122.872 32.6149C122.624 32.1188 122.278 31.7337 121.834 31.4595C121.39 31.1853 120.875 31.0482 120.287 31.0482C119.713 31.0482 119.197 31.1918 118.74 31.4791C118.283 31.7532 117.924 32.1319 117.663 32.6149C117.415 33.0849 117.291 33.6333 117.291 34.2599C117.291 34.8866 117.415 35.4415 117.663 35.9245C117.924 36.4076 118.283 36.7862 118.74 37.0604C119.197 37.3346 119.713 37.4716 120.287 37.4716Z" fill="#333132"/>
</g>
<defs>
<clipPath id="clip0_1694_35621">
<rect width="371" height="139.261" fill="white" transform="translate(0 0.178955)"/>
</clipPath>
</defs>
</svg>
