<svg width="211" height="262" viewBox="0 0 211 262" fill="none" xmlns="http://www.w3.org/2000/svg">
<rect x="0.861816" width="209.979" height="261.114" rx="8.70381" fill="white"/>
<path d="M32.4349 55.4631V53.4395C33.3633 52.6707 34.2627 51.9091 35.1331 51.1547C36.018 50.4004 36.8013 49.6533 37.4831 48.9135C38.1794 48.1737 38.7307 47.4556 39.1369 46.7593C39.5576 46.0485 39.7679 45.3595 39.7679 44.6922C39.7679 44.0684 39.5938 43.5172 39.2457 43.0384C38.912 42.5597 38.3535 42.3204 37.5702 42.3204C36.7723 42.3204 36.1703 42.5815 35.7641 43.1037C35.358 43.626 35.1549 44.257 35.1549 44.9968H32.4567C32.4857 43.8798 32.7323 42.9514 33.1965 42.2116C33.6607 41.4573 34.2772 40.8988 35.0461 40.5361C35.8149 40.1589 36.678 39.9703 37.6355 39.9703C39.1876 39.9703 40.3917 40.3983 41.2475 41.2542C42.1179 42.0955 42.5531 43.1908 42.5531 44.5399C42.5531 45.3812 42.3573 46.2008 41.9656 46.9987C41.5884 47.7965 41.088 48.5654 40.4642 49.3052C39.8404 50.045 39.1659 50.7413 38.4406 51.3941C37.7152 52.0324 37.0117 52.6271 36.3299 53.1784H42.923V55.4631H32.4349ZM51.701 55.7242C50.2938 55.7242 49.0898 55.3979 48.0889 54.7451C47.0879 54.0778 46.3118 53.1566 45.7606 51.9816C45.2239 50.7921 44.9555 49.414 44.9555 47.8473C44.9555 46.2951 45.2239 44.9243 45.7606 43.7347C46.3118 42.5452 47.0879 41.6241 48.0889 40.9713C49.0898 40.304 50.2938 39.9703 51.701 39.9703C53.1081 39.9703 54.3121 40.304 55.313 40.9713C56.314 41.6241 57.0828 42.5452 57.6195 43.7347C58.1708 44.9243 58.4464 46.2951 58.4464 47.8473C58.4464 49.414 58.1708 50.7921 57.6195 51.9816C57.0828 53.1566 56.314 54.0778 55.313 54.7451C54.3121 55.3979 53.1081 55.7242 51.701 55.7242ZM51.701 53.2219C52.847 53.2219 53.7826 52.7432 54.5079 51.7858C55.2333 50.8284 55.5959 49.5155 55.5959 47.8473C55.5959 46.1791 55.2333 44.8662 54.5079 43.9088C53.7826 42.9514 52.847 42.4727 51.701 42.4727C50.5404 42.4727 49.5975 42.9514 48.8722 43.9088C48.1614 44.8662 47.806 46.1791 47.806 47.8473C47.806 49.5155 48.1614 50.8284 48.8722 51.7858C49.5975 52.7432 50.5404 53.2219 51.701 53.2219ZM66.7421 55.4631V40.2315H71.9426C73.7269 40.2315 75.192 40.5506 76.338 41.1889C77.4985 41.8127 78.3544 42.6975 78.9056 43.8435C79.4714 44.975 79.7543 46.3096 79.7543 47.8473C79.7543 49.385 79.4714 50.7268 78.9056 51.8728C78.3544 53.0043 77.4985 53.8892 76.338 54.5275C75.192 55.1512 73.7269 55.4631 71.9426 55.4631H66.7421ZM69.5273 53.0696H71.812C73.0886 53.0696 74.0968 52.8665 74.8366 52.4603C75.5764 52.0396 76.1059 51.4449 76.4251 50.676C76.7442 49.8927 76.9038 48.9498 76.9038 47.8473C76.9038 46.7593 76.7442 45.8237 76.4251 45.0403C76.1059 44.257 75.5764 43.655 74.8366 43.2343C74.0968 42.8136 73.0886 42.6033 71.812 42.6033H69.5273V53.0696ZM86.1937 55.7242C85.2653 55.7242 84.5037 55.5792 83.909 55.2891C83.3142 54.9844 82.8718 54.5855 82.5816 54.0923C82.2915 53.5991 82.1464 53.0551 82.1464 52.4603C82.1464 51.4594 82.5381 50.647 83.3215 50.0233C84.1048 49.3995 85.2798 49.0876 86.8465 49.0876H89.5882V48.8265C89.5882 48.0867 89.3779 47.5427 88.9572 47.1945C88.5365 46.8464 88.0143 46.6723 87.3905 46.6723C86.8247 46.6723 86.3315 46.8101 85.9108 47.0857C85.4902 47.3468 85.229 47.7385 85.1275 48.2607H82.4076C82.4801 47.4774 82.7412 46.7956 83.1909 46.2153C83.6551 45.6351 84.2499 45.1926 84.9752 44.888C85.7005 44.5689 86.5129 44.4093 87.4123 44.4093C88.9499 44.4093 90.1612 44.7937 91.0461 45.5625C91.931 46.3314 92.3734 47.4194 92.3734 48.8265V55.4631H90.0016L89.7405 53.7224C89.4214 54.3026 88.9717 54.7813 88.3914 55.1585C87.8257 55.5357 87.0931 55.7242 86.1937 55.7242ZM86.8247 53.5483C87.6226 53.5483 88.2391 53.2872 88.6743 52.765C89.124 52.2427 89.4069 51.5972 89.5229 50.8284H87.1511C86.4113 50.8284 85.8818 50.9662 85.5627 51.2418C85.2436 51.5029 85.084 51.8293 85.084 52.221C85.084 52.6416 85.2436 52.968 85.5627 53.2001C85.8818 53.4322 86.3025 53.5483 86.8247 53.5483ZM96.3456 60.2502L98.8479 54.7451H98.1951L93.9955 44.6704H97.0201L100.045 52.2645L103.2 44.6704H106.159L99.3049 60.2502H96.3456ZM112.236 55.7242C111.278 55.7242 110.437 55.5719 109.712 55.2673C108.986 54.9482 108.406 54.513 107.971 53.9617C107.536 53.4105 107.275 52.7722 107.188 52.0469H109.995C110.082 52.4676 110.314 52.8302 110.691 53.1349C111.083 53.425 111.583 53.5701 112.192 53.5701C112.802 53.5701 113.244 53.4468 113.52 53.2001C113.81 52.9535 113.955 52.6707 113.955 52.3515C113.955 51.8873 113.752 51.5754 113.346 51.4159C112.939 51.2418 112.374 51.075 111.648 50.9154C111.184 50.8138 110.713 50.6905 110.234 50.5455C109.755 50.4004 109.313 50.2191 108.907 50.0015C108.515 49.7694 108.196 49.4793 107.949 49.1311C107.703 48.7685 107.579 48.326 107.579 47.8038C107.579 46.8464 107.956 46.0413 108.711 45.3885C109.48 44.7357 110.553 44.4093 111.931 44.4093C113.208 44.4093 114.223 44.7067 114.977 45.3014C115.746 45.8962 116.203 46.7158 116.348 47.7603H113.715C113.556 46.9624 112.954 46.5635 111.909 46.5635C111.387 46.5635 110.981 46.665 110.691 46.8681C110.415 47.0712 110.277 47.3251 110.277 47.6297C110.277 47.9488 110.488 48.2027 110.908 48.3913C111.329 48.5799 111.888 48.7539 112.584 48.9135C113.338 49.0876 114.027 49.2834 114.651 49.501C115.289 49.7041 115.797 50.016 116.174 50.4367C116.551 50.8429 116.74 51.4304 116.74 52.1992C116.755 52.8665 116.58 53.4685 116.218 54.0052C115.855 54.542 115.333 54.9627 114.651 55.2673C113.969 55.5719 113.164 55.7242 112.236 55.7242Z" fill="#333132"/>
<path d="M32.2391 81.4546V72.0545H35.0918C35.1919 72.0545 35.3616 72.0566 35.6009 72.061C35.8446 72.0654 36.0775 72.0828 36.2994 72.1132C37.0131 72.2133 37.6093 72.4788 38.0881 72.9096C38.5668 73.3405 38.9258 73.8888 39.1652 74.5546C39.4045 75.2205 39.5242 75.9538 39.5242 76.7545C39.5242 77.5553 39.4045 78.2886 39.1652 78.9544C38.9258 79.6203 38.5668 80.1686 38.0881 80.5994C37.6093 81.0303 37.0131 81.2957 36.2994 81.3958C36.0818 81.422 35.849 81.4394 35.6009 81.4481C35.3529 81.4524 35.1832 81.4546 35.0918 81.4546H32.2391ZM33.2313 80.5342H35.0918C35.2702 80.5342 35.4617 80.5298 35.6662 80.5211C35.8751 80.5081 36.0535 80.4863 36.2015 80.4558C36.7498 80.3601 37.1916 80.1381 37.5267 79.79C37.8661 79.4418 38.1142 79.0066 38.2708 78.4844C38.4275 77.9578 38.5058 77.3812 38.5058 76.7545C38.5058 76.1235 38.4275 75.5447 38.2708 75.0181C38.1142 74.4915 37.8661 74.0563 37.5267 73.7125C37.1872 73.3687 36.7455 73.149 36.2015 73.0532C36.0535 73.0228 35.8729 73.0032 35.6597 72.9945C35.4508 72.9814 35.2615 72.9749 35.0918 72.9749H33.2313V80.5342ZM43.3544 81.6504C42.8235 81.6504 42.3774 81.5547 42.0162 81.3632C41.6593 81.1717 41.3917 80.9171 41.2133 80.5994C41.0348 80.2818 40.9456 79.9358 40.9456 79.5615C40.9456 79.1785 41.0218 78.8522 41.1741 78.5823C41.3308 78.3082 41.5418 78.084 41.8073 77.91C42.0771 77.7359 42.3883 77.6032 42.7408 77.5118C43.0976 77.4247 43.4915 77.3486 43.9223 77.2833C44.3575 77.2137 44.7818 77.1549 45.1953 77.107C45.613 77.0548 45.9786 77.0048 46.2919 76.9569L45.9525 77.1658C45.9656 76.4695 45.8306 75.9538 45.5478 75.6187C45.2649 75.2836 44.7731 75.116 44.0725 75.116C43.5894 75.116 43.1803 75.2248 42.8452 75.4424C42.5145 75.66 42.2817 76.0038 42.1468 76.4738L41.2133 76.1997C41.3743 75.5686 41.6985 75.079 42.1859 74.7309C42.6733 74.3827 43.3065 74.2087 44.0855 74.2087C44.7296 74.2087 45.2758 74.3305 45.724 74.5742C46.1766 74.8136 46.4965 75.1617 46.6836 75.6187C46.7707 75.8232 46.8272 76.0517 46.8533 76.3041C46.8795 76.5565 46.8925 76.8133 46.8925 77.0744V81.4546H46.0374V79.6855L46.2854 79.79C46.0461 80.3949 45.674 80.8562 45.1692 81.1739C44.6643 81.4916 44.0594 81.6504 43.3544 81.6504ZM43.4654 80.8214C43.9136 80.8214 44.3053 80.7409 44.6404 80.5799C44.9755 80.4188 45.2453 80.1991 45.4499 79.9205C45.6544 79.6377 45.7871 79.32 45.848 78.9675C45.9003 78.7412 45.9286 78.4931 45.9329 78.2233C45.9373 77.9491 45.9394 77.7446 45.9394 77.6097L46.305 77.799C45.9786 77.8425 45.6239 77.886 45.241 77.9295C44.8623 77.9731 44.4881 78.0231 44.1182 78.0797C43.7526 78.1363 43.4219 78.2037 43.1259 78.2821C42.9257 78.3386 42.7321 78.4191 42.545 78.5236C42.3578 78.6237 42.2033 78.7586 42.0815 78.9283C41.964 79.098 41.9052 79.3091 41.9052 79.5615C41.9052 79.7661 41.9553 79.9641 42.0554 80.1555C42.1598 80.347 42.3252 80.5059 42.5515 80.6321C42.7821 80.7583 43.0868 80.8214 43.4654 80.8214ZM51.549 81.6439C50.7222 81.6439 50.0411 81.4655 49.5058 81.1086C48.9749 80.7518 48.6485 80.2556 48.5266 79.6203L49.5058 79.4571C49.6102 79.8574 49.8474 80.1773 50.2173 80.4167C50.5916 80.6517 51.0529 80.7692 51.6012 80.7692C52.1365 80.7692 52.5587 80.6582 52.8676 80.4362C53.1766 80.2099 53.3311 79.9031 53.3311 79.5158C53.3311 79.2982 53.2811 79.122 53.181 78.9871C53.0852 78.8478 52.8872 78.7194 52.5869 78.6019C52.2867 78.4844 51.8384 78.3452 51.2422 78.1841C50.6025 78.0101 50.102 77.836 49.7408 77.6619C49.3796 77.4878 49.1228 77.2876 48.9705 77.0613C48.8182 76.8307 48.742 76.55 48.742 76.2192C48.742 75.8189 48.8552 75.4685 49.0815 75.1683C49.3078 74.8636 49.6211 74.6286 50.0215 74.4633C50.4219 74.2935 50.8875 74.2087 51.4185 74.2087C51.9494 74.2087 52.4237 74.2957 52.8415 74.4698C53.2637 74.6395 53.6031 74.8789 53.8599 75.1878C54.1166 75.4968 54.269 75.8559 54.3168 76.2649L53.3376 76.4412C53.2724 76.0278 53.0657 75.7014 52.7175 75.462C52.3737 75.2183 51.9363 75.0921 51.4054 75.0834C50.9049 75.0703 50.498 75.1661 50.1847 75.3706C49.8714 75.5708 49.7147 75.8385 49.7147 76.1736C49.7147 76.3607 49.7713 76.5217 49.8844 76.6566C49.9976 76.7872 50.2021 76.9112 50.498 77.0287C50.7983 77.1462 51.2248 77.2746 51.7775 77.4138C52.4259 77.5792 52.9351 77.7533 53.305 77.9361C53.6749 78.1189 53.9382 78.3343 54.0949 78.5823C54.2515 78.8304 54.3299 79.1372 54.3299 79.5028C54.3299 80.1686 54.0818 80.693 53.5857 81.076C53.0939 81.4546 52.415 81.6439 51.549 81.6439ZM61.1958 81.4546V77.8577C61.1958 77.4661 61.1588 77.107 61.0848 76.7806C61.0108 76.4499 60.8911 76.1627 60.7258 75.919C60.5647 75.6709 60.3537 75.4794 60.0926 75.3445C59.8358 75.2096 59.5225 75.1422 59.1525 75.1422C58.8131 75.1422 58.5128 75.2009 58.2517 75.3184C57.9949 75.4359 57.7773 75.6056 57.5989 75.8276C57.4248 76.0452 57.2921 76.3106 57.2007 76.624C57.1093 76.9373 57.0636 77.2942 57.0636 77.6945L56.3847 77.5444C56.3847 76.822 56.5109 76.2149 56.7633 75.7231C57.0158 75.2314 57.3639 74.8593 57.8078 74.6069C58.2517 74.3545 58.7609 74.2283 59.3353 74.2283C59.7575 74.2283 60.1252 74.2935 60.4385 74.4241C60.7562 74.5546 61.0239 74.7309 61.2415 74.9528C61.4634 75.1748 61.6418 75.4294 61.7767 75.7166C61.9116 75.9995 62.0096 76.3019 62.0705 76.624C62.1314 76.9417 62.1619 77.2594 62.1619 77.577V81.4546H61.1958ZM56.0975 81.4546V72.0545H56.9657V77.3616H57.0636V81.4546H56.0975ZM67.3483 81.6504C66.6998 81.6504 66.1515 81.4872 65.7032 81.1608C65.255 80.8301 64.9156 80.384 64.6849 79.8226C64.4542 79.2569 64.3389 78.6237 64.3389 77.923C64.3389 77.2093 64.4542 76.5739 64.6849 76.0169C64.9199 75.4555 65.2637 75.0138 65.7163 74.6917C66.1689 74.3697 66.7259 74.2087 67.3874 74.2087C68.0315 74.2087 68.5842 74.3719 69.0455 74.6983C69.5068 75.0246 69.8593 75.4685 70.103 76.0299C70.3511 76.5913 70.4751 77.2224 70.4751 77.923C70.4751 78.628 70.3511 79.2612 70.103 79.8226C69.855 80.384 69.4981 80.8301 69.0325 81.1608C68.5668 81.4872 68.0054 81.6504 67.3483 81.6504ZM64.1757 81.4546V72.0545H65.1418V76.1474H65.0374V81.4546H64.1757ZM67.2503 80.7561C67.7421 80.7561 68.1512 80.6321 68.4776 80.384C68.804 80.136 69.0477 79.7987 69.2087 79.3722C69.3741 78.9414 69.4568 78.4583 69.4568 77.923C69.4568 77.3921 69.3763 76.9134 69.2152 76.4869C69.0542 76.0604 68.8083 75.7231 68.4776 75.4751C68.1512 75.227 67.7356 75.103 67.2308 75.103C66.739 75.103 66.3299 75.2227 66.0035 75.462C65.6815 75.7014 65.44 76.0343 65.2789 76.4608C65.1179 76.8829 65.0374 77.3703 65.0374 77.923C65.0374 78.467 65.1179 78.9544 65.2789 79.3853C65.44 79.8117 65.6837 80.1468 66.0101 80.3905C66.3364 80.6343 66.7499 80.7561 67.2503 80.7561ZM75.179 81.6504C74.4784 81.6504 73.88 81.4916 73.3839 81.1739C72.8878 80.8562 72.507 80.4167 72.2415 79.8553C71.976 79.2939 71.8433 78.6498 71.8433 77.923C71.8433 77.1832 71.9782 76.5348 72.248 75.9777C72.5179 75.4207 72.9008 74.9877 73.3969 74.6787C73.8974 74.3653 74.4914 74.2087 75.179 74.2087C75.8841 74.2087 76.4846 74.3675 76.9807 74.6852C77.4812 74.9985 77.862 75.4359 78.1231 75.9973C78.3886 76.5543 78.5213 77.1962 78.5213 77.923C78.5213 78.6628 78.3886 79.3135 78.1231 79.8748C77.8576 80.4319 77.4747 80.8671 76.9742 81.1804C76.4737 81.4938 75.8753 81.6504 75.179 81.6504ZM75.179 80.73C75.9624 80.73 76.5455 80.4711 76.9285 79.9532C77.3115 79.431 77.503 78.7542 77.503 77.923C77.503 77.07 77.3093 76.3911 76.922 75.8863C76.539 75.3815 75.958 75.1291 75.179 75.1291C74.6525 75.1291 74.2173 75.2488 73.8735 75.4881C73.534 75.7231 73.2794 76.0517 73.1097 76.4738C72.9443 76.8916 72.8617 77.3747 72.8617 77.923C72.8617 78.7716 73.0575 79.4527 73.4492 79.9662C73.8408 80.4754 74.4175 80.73 75.179 80.73ZM82.3048 81.6504C81.7739 81.6504 81.3278 81.5547 80.9666 81.3632C80.6097 81.1717 80.3421 80.9171 80.1637 80.5994C79.9852 80.2818 79.896 79.9358 79.896 79.5615C79.896 79.1785 79.9722 78.8522 80.1245 78.5823C80.2812 78.3082 80.4922 78.084 80.7577 77.91C81.0275 77.7359 81.3387 77.6032 81.6912 77.5118C82.0481 77.4247 82.4419 77.3486 82.8727 77.2833C83.3079 77.2137 83.7322 77.1549 84.1457 77.107C84.5635 77.0548 84.929 77.0048 85.2424 76.9569L84.9029 77.1658C84.916 76.4695 84.781 75.9538 84.4982 75.6187C84.2153 75.2836 83.7235 75.116 83.0229 75.116C82.5398 75.116 82.1307 75.2248 81.7956 75.4424C81.4649 75.66 81.2321 76.0038 81.0972 76.4738L80.1637 76.1997C80.3247 75.5686 80.6489 75.079 81.1363 74.7309C81.6237 74.3827 82.2569 74.2087 83.0359 74.2087C83.68 74.2087 84.2262 74.3305 84.6744 74.5742C85.127 74.8136 85.4469 75.1617 85.634 75.6187C85.7211 75.8232 85.7776 76.0517 85.8037 76.3041C85.8299 76.5565 85.8429 76.8133 85.8429 77.0744V81.4546H84.9878V79.6855L85.2358 79.79C84.9965 80.3949 84.6244 80.8562 84.1196 81.1739C83.6147 81.4916 83.0098 81.6504 82.3048 81.6504ZM82.4158 80.8214C82.864 80.8214 83.2557 80.7409 83.5908 80.5799C83.9259 80.4188 84.1957 80.1991 84.4003 79.9205C84.6048 79.6377 84.7375 79.32 84.7985 78.9675C84.8507 78.7412 84.879 78.4931 84.8833 78.2233C84.8877 77.9491 84.8898 77.7446 84.8898 77.6097L85.2554 77.799C84.929 77.8425 84.5743 77.886 84.1914 77.9295C83.8128 77.9731 83.4385 78.0231 83.0686 78.0797C82.703 78.1363 82.3723 78.2037 82.0763 78.2821C81.8762 78.3386 81.6825 78.4191 81.4954 78.5236C81.3082 78.6237 81.1537 78.7586 81.0319 78.9283C80.9144 79.098 80.8556 79.3091 80.8556 79.5615C80.8556 79.7661 80.9057 79.9641 81.0058 80.1555C81.1102 80.347 81.2756 80.5059 81.5019 80.6321C81.7325 80.7583 82.0372 80.8214 82.4158 80.8214ZM87.8687 81.4546V74.4045H88.7304V76.1017L88.5606 75.8798C88.639 75.6709 88.7412 75.4794 88.8675 75.3053C88.9937 75.1269 89.1307 74.9811 89.2787 74.868C89.4615 74.707 89.6747 74.5851 89.9184 74.5024C90.1621 74.4154 90.408 74.3653 90.6561 74.3523C90.9041 74.3349 91.1304 74.3523 91.335 74.4045V75.3053C91.0782 75.2401 90.7975 75.2248 90.4929 75.2597C90.1883 75.2945 89.9076 75.4163 89.6508 75.6252C89.4158 75.808 89.2395 76.0278 89.122 76.2845C89.0045 76.5369 88.9262 76.8068 88.887 77.094C88.8479 77.3769 88.8283 77.6576 88.8283 77.9361V81.4546H87.8687ZM95.5074 81.6504C94.8503 81.6504 94.2889 81.4872 93.8232 81.1608C93.3576 80.8301 93.0007 80.384 92.7527 79.8226C92.5046 79.2612 92.3806 78.628 92.3806 77.923C92.3806 77.2224 92.5024 76.5913 92.7461 76.0299C92.9942 75.4685 93.3489 75.0246 93.8102 74.6983C94.2715 74.3719 94.8242 74.2087 95.4682 74.2087C96.1297 74.2087 96.6868 74.3697 97.1394 74.6917C97.592 75.0138 97.9336 75.4555 98.1642 76.0169C98.3992 76.5739 98.5168 77.2093 98.5168 77.923C98.5168 78.6237 98.4014 79.2569 98.1708 79.8226C97.9401 80.384 97.6007 80.8301 97.1524 81.1608C96.7042 81.4872 96.1558 81.6504 95.5074 81.6504ZM95.6053 80.7561C96.1058 80.7561 96.5192 80.6343 96.8456 80.3905C97.172 80.1468 97.4157 79.8117 97.5767 79.3853C97.7378 78.9544 97.8183 78.467 97.8183 77.923C97.8183 77.3703 97.7378 76.8829 97.5767 76.4608C97.4157 76.0343 97.172 75.7014 96.8456 75.462C96.5236 75.2227 96.1167 75.103 95.6249 75.103C95.1201 75.103 94.7023 75.227 94.3716 75.4751C94.0408 75.7231 93.7949 76.0604 93.6339 76.4869C93.4772 76.9134 93.3989 77.3921 93.3989 77.923C93.3989 78.4583 93.4794 78.9414 93.6404 79.3722C93.8058 79.7987 94.0517 80.136 94.3781 80.384C94.7045 80.6321 95.1136 80.7561 95.6053 80.7561ZM97.8183 81.4546V76.1474H97.7138V72.0545H98.6799V81.4546H97.8183ZM106.846 81.6504C106.267 81.6504 105.745 81.5155 105.279 81.2457C104.818 80.9759 104.452 80.6103 104.183 80.149C103.913 79.6834 103.778 79.1611 103.778 78.5823V74.9267C103.778 74.3479 103.913 73.8279 104.183 73.3666C104.452 72.9009 104.818 72.5332 105.279 72.2634C105.745 71.9935 106.267 71.8586 106.846 71.8586C107.425 71.8586 107.945 71.9935 108.406 72.2634C108.872 72.5332 109.239 72.9009 109.509 73.3666C109.779 73.8279 109.914 74.3479 109.914 74.9267V78.5823C109.914 79.1611 109.779 79.6834 109.509 80.149C109.239 80.6103 108.872 80.9759 108.406 81.2457C107.945 81.5155 107.425 81.6504 106.846 81.6504ZM106.846 80.7235C107.233 80.7235 107.586 80.6299 107.903 80.4428C108.221 80.2513 108.474 79.9967 108.661 79.679C108.848 79.3613 108.941 79.011 108.941 78.628V74.881C108.941 74.4937 108.848 74.1412 108.661 73.8235C108.474 73.5058 108.221 73.2534 107.903 73.0663C107.586 72.8748 107.233 72.7791 106.846 72.7791C106.459 72.7791 106.106 72.8748 105.788 73.0663C105.471 73.2534 105.218 73.5058 105.031 73.8235C104.844 74.1412 104.75 74.4937 104.75 74.881V78.628C104.75 79.011 104.844 79.3613 105.031 79.679C105.218 79.9967 105.471 80.2513 105.788 80.4428C106.106 80.6299 106.459 80.7235 106.846 80.7235ZM115.141 81.6504C114.562 81.6504 114.04 81.5155 113.574 81.2457C113.113 80.9759 112.747 80.6103 112.477 80.149C112.208 79.6834 112.073 79.1611 112.073 78.5823V74.9267C112.073 74.3479 112.208 73.8279 112.477 73.3666C112.747 72.9009 113.113 72.5332 113.574 72.2634C114.04 71.9935 114.562 71.8586 115.141 71.8586C115.72 71.8586 116.24 71.9935 116.701 72.2634C117.167 72.5332 117.534 72.9009 117.804 73.3666C118.074 73.8279 118.209 74.3479 118.209 74.9267V78.5823C118.209 79.1611 118.074 79.6834 117.804 80.149C117.534 80.6103 117.167 80.9759 116.701 81.2457C116.24 81.5155 115.72 81.6504 115.141 81.6504ZM115.141 80.7235C115.528 80.7235 115.881 80.6299 116.198 80.4428C116.516 80.2513 116.768 79.9967 116.956 79.679C117.143 79.3613 117.236 79.011 117.236 78.628V74.881C117.236 74.4937 117.143 74.1412 116.956 73.8235C116.768 73.5058 116.516 73.2534 116.198 73.0663C115.881 72.8748 115.528 72.7791 115.141 72.7791C114.754 72.7791 114.401 72.8748 114.083 73.0663C113.766 73.2534 113.513 73.5058 113.326 73.8235C113.139 74.1412 113.045 74.4937 113.045 74.881V78.628C113.045 79.011 113.139 79.3613 113.326 79.679C113.513 79.9967 113.766 80.2513 114.083 80.4428C114.401 80.6299 114.754 80.7235 115.141 80.7235ZM122.006 81.4546V73.125L120.237 74.1891V73.112L122.006 72.0545H122.979V81.4546H122.006Z" fill="#5C5B5C"/>
<rect x="31.3252" y="97.9177" width="66.3666" height="22.8475" rx="4.35191" fill="#EAEFF1"/>
<path d="M57.3882 114.27V107.508L55.914 108.4V107.318L57.3882 106.436H58.3728V114.27H57.3882ZM63.4129 114.433C62.9052 114.433 62.4518 114.319 62.0529 114.09C61.6576 113.858 61.3439 113.544 61.1118 113.149C60.8833 112.75 60.7691 112.297 60.7691 111.789V108.917C60.7691 108.409 60.8833 107.956 61.1118 107.557C61.3439 107.158 61.6576 106.844 62.0529 106.616C62.4518 106.387 62.9052 106.273 63.4129 106.273C63.9206 106.273 64.3739 106.387 64.7729 106.616C65.1718 106.844 65.4855 107.158 65.714 107.557C65.9424 107.956 66.0567 108.409 66.0567 108.917V111.789C66.0567 112.297 65.9424 112.75 65.714 113.149C65.4855 113.544 65.1718 113.858 64.7729 114.09C64.3739 114.319 63.9206 114.433 63.4129 114.433ZM63.4129 113.503C63.7212 113.503 64.0004 113.428 64.2506 113.28C64.5009 113.131 64.7003 112.932 64.849 112.681C64.9977 112.427 65.0721 112.148 65.0721 111.844V108.857C65.0721 108.549 64.9977 108.27 64.849 108.019C64.7003 107.769 64.5009 107.57 64.2506 107.421C64.0004 107.272 63.7212 107.198 63.4129 107.198C63.1083 107.198 62.829 107.272 62.5752 107.421C62.3249 107.57 62.1255 107.769 61.9768 108.019C61.8281 108.27 61.7537 108.549 61.7537 108.857V111.844C61.7537 112.148 61.8281 112.427 61.9768 112.681C62.1255 112.932 62.3249 113.131 62.5752 113.28C62.829 113.428 63.1083 113.503 63.4129 113.503ZM67.7972 115.488L67.857 115.037C68.0093 115.048 68.1236 115.019 68.1997 114.95C68.2759 114.881 68.3249 114.787 68.3466 114.667C68.3684 114.547 68.372 114.415 68.3575 114.27H67.7972V113.04H68.8634V114.433C68.8634 114.814 68.7691 115.1 68.5805 115.292C68.3956 115.485 68.1345 115.55 67.7972 115.488ZM73.5778 114.433C73.1753 114.433 72.7999 114.35 72.4518 114.183C72.1072 114.016 71.8117 113.787 71.5651 113.497C71.3221 113.204 71.148 112.866 71.0428 112.485L71.9731 112.235C72.0383 112.493 72.1544 112.716 72.3212 112.904C72.488 113.089 72.6821 113.234 72.9033 113.34C73.1281 113.441 73.362 113.492 73.605 113.492C73.9242 113.492 74.2107 113.416 74.4645 113.263C74.722 113.107 74.9251 112.903 75.0738 112.649C75.2225 112.391 75.2968 112.11 75.2968 111.806C75.2968 111.49 75.2189 111.205 75.0629 110.951C74.9106 110.694 74.7057 110.491 74.4482 110.342C74.1907 110.193 73.9097 110.119 73.605 110.119C73.2605 110.119 72.9649 110.192 72.7183 110.337C72.4753 110.478 72.2831 110.652 72.1417 110.859L71.2822 110.533L71.5215 106.436H75.7266V107.356H71.9894L72.4191 106.953L72.2179 110.233L72.0057 109.956C72.2233 109.724 72.4826 109.544 72.7836 109.417C73.0882 109.29 73.3983 109.227 73.7138 109.227C74.1998 109.227 74.635 109.341 75.0194 109.57C75.4038 109.795 75.7084 110.103 75.9333 110.494C76.1581 110.883 76.2706 111.32 76.2706 111.806C76.2706 112.288 76.1473 112.728 75.9007 113.127C75.654 113.523 75.3258 113.84 74.916 114.079C74.5099 114.315 74.0638 114.433 73.5778 114.433ZM81.2728 114.27L80.62 113.617L87.8115 106.436L88.4643 107.089L81.2728 114.27ZM86.8324 114.433C86.4733 114.433 86.1451 114.346 85.8477 114.172C85.554 113.994 85.3183 113.758 85.1405 113.465C84.9628 113.167 84.874 112.837 84.874 112.475C84.874 112.119 84.9647 111.793 85.146 111.495C85.3273 111.198 85.5667 110.961 85.8641 110.783C86.1614 110.605 86.4842 110.516 86.8324 110.516C87.1914 110.516 87.5196 110.605 87.817 110.783C88.1144 110.957 88.3501 111.193 88.5242 111.49C88.7019 111.784 88.7907 112.112 88.7907 112.475C88.7907 112.837 88.7019 113.167 88.5242 113.465C88.3501 113.758 88.1144 113.994 87.817 114.172C87.5196 114.346 87.1914 114.433 86.8324 114.433ZM86.8324 113.579C87.0318 113.579 87.215 113.528 87.3818 113.427C87.5522 113.325 87.6864 113.191 87.7843 113.024C87.8859 112.857 87.9366 112.674 87.9366 112.475C87.9366 112.275 87.8859 112.092 87.7843 111.925C87.6864 111.755 87.5522 111.621 87.3818 111.523C87.215 111.421 87.0318 111.37 86.8324 111.37C86.6329 111.37 86.4497 111.421 86.2829 111.523C86.1161 111.621 85.9819 111.755 85.8804 111.925C85.7788 112.092 85.7281 112.275 85.7281 112.475C85.7281 112.674 85.7788 112.857 85.8804 113.024C85.9819 113.191 86.1161 113.325 86.2829 113.427C86.4497 113.528 86.6329 113.579 86.8324 113.579ZM82.252 110.19C81.8929 110.19 81.5647 110.103 81.2674 109.929C80.97 109.751 80.7324 109.515 80.5547 109.222C80.3807 108.924 80.2936 108.594 80.2936 108.232C80.2936 107.876 80.3843 107.55 80.5656 107.252C80.7469 106.955 80.9863 106.717 81.2837 106.54C81.5811 106.362 81.9038 106.273 82.252 106.273C82.611 106.273 82.9374 106.362 83.2311 106.54C83.5285 106.714 83.7661 106.95 83.9438 107.247C84.1215 107.541 84.2103 107.869 84.2103 108.232C84.2103 108.594 84.1215 108.924 83.9438 109.222C83.7661 109.515 83.5285 109.751 83.2311 109.929C82.9374 110.103 82.611 110.19 82.252 110.19ZM82.252 109.336C82.4514 109.336 82.6346 109.285 82.8014 109.183C82.9718 109.082 83.106 108.948 83.204 108.781C83.3055 108.614 83.3563 108.431 83.3563 108.232C83.3563 108.032 83.3055 107.849 83.204 107.682C83.106 107.512 82.9718 107.377 82.8014 107.28C82.6346 107.178 82.4514 107.127 82.252 107.127C82.0525 107.127 81.8694 107.178 81.7025 107.28C81.5357 107.377 81.4015 107.512 81.3 107.682C81.1984 107.849 81.1477 108.032 81.1477 108.232C81.1477 108.431 81.1984 108.614 81.3 108.781C81.4015 108.948 81.5357 109.082 81.7025 109.183C81.8694 109.285 82.0525 109.336 82.252 109.336Z" fill="#2C5A6E"/>
<path d="M46.9105 105.496C46.8897 105.22 46.6496 105.014 46.3742 105.035L41.887 105.374C41.6117 105.395 41.4053 105.635 41.4261 105.91C41.4469 106.185 41.687 106.392 41.9624 106.371L45.951 106.07L46.2523 110.058C46.2731 110.334 46.5132 110.54 46.7885 110.519C47.0639 110.498 47.2703 110.258 47.2495 109.983L46.9105 105.496ZM40.4085 113.285L46.7911 105.859L46.0327 105.208L39.6501 112.633L40.4085 113.285Z" fill="#2C5A6E"/>
<rect x="31.3257" y="202.364" width="16.3196" height="28.2874" rx="4.35191" fill="#EAEFF1"/>
<path d="M35.9999 187.34V181.916L34.8738 182.18V181.22L36.5286 180.486H37.3022V187.34H35.9999ZM41.0889 187.458C40.5863 187.458 40.1522 187.37 39.7866 187.193C39.4276 187.017 39.1436 186.776 38.9347 186.469C38.7324 186.156 38.6149 185.803 38.5822 185.411H39.8062C39.8649 185.692 40.0086 185.927 40.237 186.116C40.4655 186.299 40.7495 186.391 41.0889 186.391C41.4545 186.391 41.7515 186.257 41.98 185.989C42.215 185.721 42.3325 185.389 42.3325 184.99C42.3325 184.579 42.215 184.253 41.98 184.011C41.7515 183.77 41.461 183.649 41.1085 183.649C40.8147 183.649 40.5602 183.721 40.3447 183.864C40.1293 184.008 39.9759 184.187 39.8845 184.403H38.6801L39.2676 180.486H43.0669V181.583H40.2077L39.8943 183.169C40.0379 183.012 40.2338 182.885 40.4818 182.787C40.7299 182.683 41.0073 182.63 41.3141 182.63C41.8037 182.63 42.2117 182.741 42.5381 182.963C42.8645 183.179 43.1126 183.466 43.2823 183.825C43.452 184.178 43.5369 184.563 43.5369 184.981C43.5369 185.457 43.4324 185.881 43.2235 186.253C43.0212 186.626 42.7339 186.919 42.3618 187.135C41.9963 187.35 41.572 187.458 41.0889 187.458Z" fill="#1F3F4D"/>
<rect x="63.9653" y="189.308" width="16.3196" height="41.3431" rx="4.35191" fill="#EAEFF1"/>
<path d="M66.6405 176.461V175.55C67.0583 175.204 67.463 174.861 67.8547 174.522C68.2529 174.182 68.6054 173.846 68.9122 173.513C69.2255 173.18 69.4736 172.857 69.6564 172.544C69.8457 172.224 69.9403 171.914 69.9403 171.614C69.9403 171.333 69.862 171.085 69.7053 170.87C69.5552 170.654 69.3039 170.546 68.9514 170.546C68.5923 170.546 68.3214 170.664 68.1386 170.899C67.9559 171.134 67.8645 171.418 67.8645 171.751H66.6503C66.6633 171.248 66.7743 170.83 66.9832 170.497C67.1921 170.158 67.4695 169.907 67.8155 169.744C68.1615 169.574 68.5499 169.489 68.9807 169.489C69.6792 169.489 70.221 169.682 70.6062 170.067C70.9978 170.445 71.1937 170.938 71.1937 171.545C71.1937 171.924 71.1056 172.293 70.9293 172.652C70.7596 173.011 70.5344 173.357 70.2537 173.69C69.973 174.023 69.6694 174.336 69.343 174.63C69.0166 174.917 68.7 175.184 68.3932 175.433H71.3601V176.461H66.6405ZM75.1633 176.578C74.5301 176.578 73.9883 176.431 73.5379 176.138C73.0875 175.837 72.7382 175.423 72.4902 174.894C72.2486 174.359 72.1279 173.739 72.1279 173.034C72.1279 172.335 72.2486 171.718 72.4902 171.183C72.7382 170.648 73.0875 170.233 73.5379 169.939C73.9883 169.639 74.5301 169.489 75.1633 169.489C75.7965 169.489 76.3383 169.639 76.7888 169.939C77.2392 170.233 77.5852 170.648 77.8267 171.183C78.0748 171.718 78.1988 172.335 78.1988 173.034C78.1988 173.739 78.0748 174.359 77.8267 174.894C77.5852 175.423 77.2392 175.837 76.7888 176.138C76.3383 176.431 75.7965 176.578 75.1633 176.578ZM75.1633 175.452C75.679 175.452 76.1001 175.237 76.4265 174.806C76.7529 174.375 76.9161 173.784 76.9161 173.034C76.9161 172.283 76.7529 171.692 76.4265 171.261C76.1001 170.83 75.679 170.615 75.1633 170.615C74.6411 170.615 74.2168 170.83 73.8904 171.261C73.5705 171.692 73.4106 172.283 73.4106 173.034C73.4106 173.784 73.5705 174.375 73.8904 174.806C74.2168 175.237 74.6411 175.452 75.1633 175.452Z" fill="#1F3F4D"/>
<rect x="96.6045" y="178.428" width="16.3196" height="52.2229" rx="4.35191" fill="#EAEFF1"/>
<path d="M99.2797 167.757V166.846C99.6974 166.5 100.102 166.157 100.494 165.818C100.892 165.478 101.245 165.142 101.551 164.809C101.865 164.476 102.113 164.153 102.296 163.84C102.485 163.52 102.579 163.21 102.579 162.91C102.579 162.629 102.501 162.381 102.344 162.165C102.194 161.95 101.943 161.842 101.591 161.842C101.231 161.842 100.961 161.96 100.778 162.195C100.595 162.43 100.504 162.714 100.504 163.047H99.2894C99.3025 162.544 99.4135 162.126 99.6224 161.793C99.8313 161.454 100.109 161.203 100.455 161.039C100.801 160.87 101.189 160.785 101.62 160.785C102.318 160.785 102.86 160.977 103.245 161.363C103.637 161.741 103.833 162.234 103.833 162.841C103.833 163.22 103.745 163.589 103.568 163.948C103.399 164.307 103.174 164.653 102.893 164.986C102.612 165.318 102.309 165.632 101.982 165.926C101.656 166.213 101.339 166.48 101.032 166.728H103.999V167.757H99.2797ZM108.087 167.757V166.484H104.709V165.485L107.921 160.902H109.341V165.397H110.242V166.484H109.341V167.757H108.087ZM106.051 165.397H108.166V162.283L106.051 165.397Z" fill="#1F3F4D"/>
<rect x="129.244" y="189.308" width="16.3196" height="41.3431" rx="4.35191" fill="#EAEFF1"/>
<path d="M131.919 176.461V175.55C132.337 175.204 132.742 174.861 133.133 174.522C133.532 174.182 133.884 173.846 134.191 173.513C134.504 173.18 134.752 172.857 134.935 172.544C135.124 172.224 135.219 171.914 135.219 171.614C135.219 171.333 135.141 171.085 134.984 170.87C134.834 170.654 134.583 170.546 134.23 170.546C133.871 170.546 133.6 170.664 133.417 170.899C133.235 171.134 133.143 171.418 133.143 171.751H131.929C131.942 171.248 132.053 170.83 132.262 170.497C132.471 170.158 132.748 169.907 133.094 169.744C133.44 169.574 133.829 169.489 134.26 169.489C134.958 169.489 135.5 169.682 135.885 170.067C136.277 170.445 136.472 170.938 136.472 171.545C136.472 171.924 136.384 172.293 136.208 172.652C136.038 173.011 135.813 173.357 135.532 173.69C135.252 174.023 134.948 174.336 134.622 174.63C134.295 174.917 133.979 175.184 133.672 175.433H136.639V176.461H131.919ZM140.442 176.578C139.809 176.578 139.267 176.431 138.817 176.138C138.366 175.837 138.017 175.423 137.769 174.894C137.527 174.359 137.407 173.739 137.407 173.034C137.407 172.335 137.527 171.718 137.769 171.183C138.017 170.648 138.366 170.233 138.817 169.939C139.267 169.639 139.809 169.489 140.442 169.489C141.075 169.489 141.617 169.639 142.068 169.939C142.518 170.233 142.864 170.648 143.106 171.183C143.354 171.718 143.478 172.335 143.478 173.034C143.478 173.739 143.354 174.359 143.106 174.894C142.864 175.423 142.518 175.837 142.068 176.138C141.617 176.431 141.075 176.578 140.442 176.578ZM140.442 175.452C140.958 175.452 141.379 175.237 141.705 174.806C142.032 174.375 142.195 173.784 142.195 173.034C142.195 172.283 142.032 171.692 141.705 171.261C141.379 170.83 140.958 170.615 140.442 170.615C139.92 170.615 139.496 170.83 139.169 171.261C138.849 171.692 138.689 172.283 138.689 173.034C138.689 173.784 138.849 174.375 139.169 174.806C139.496 175.237 139.92 175.452 140.442 175.452Z" fill="#1F3F4D"/>
<rect x="161.883" y="152.317" width="16.3196" height="78.3343" rx="4.35191" fill="#1F3F4D"/>
<path d="M165.968 145.997V140.235L164.647 141.043V139.74L165.968 138.947H167.173V145.997H165.968ZM171.574 146.144C171.075 146.144 170.634 146.038 170.252 145.826C169.87 145.611 169.572 145.312 169.356 144.93C169.144 144.548 169.038 144.107 169.038 143.608V141.336C169.038 140.837 169.144 140.396 169.356 140.015C169.572 139.633 169.87 139.336 170.252 139.123C170.634 138.908 171.075 138.8 171.574 138.8C172.073 138.8 172.512 138.908 172.891 139.123C173.273 139.336 173.572 139.633 173.787 140.015C174.002 140.396 174.11 140.837 174.11 141.336V143.608C174.11 144.107 174.002 144.548 173.787 144.93C173.572 145.312 173.273 145.611 172.891 145.826C172.512 146.038 172.073 146.144 171.574 146.144ZM171.574 145.023C171.822 145.023 172.047 144.964 172.25 144.847C172.452 144.726 172.612 144.566 172.729 144.367C172.847 144.165 172.906 143.939 172.906 143.691V141.248C172.906 140.997 172.847 140.772 172.729 140.573C172.612 140.37 172.452 140.21 172.25 140.093C172.047 139.972 171.822 139.912 171.574 139.912C171.326 139.912 171.101 139.972 170.898 140.093C170.696 140.21 170.536 140.37 170.419 140.573C170.301 140.772 170.242 140.997 170.242 141.248V143.691C170.242 143.939 170.301 144.165 170.419 144.367C170.536 144.566 170.696 144.726 170.898 144.847C171.101 144.964 171.326 145.023 171.574 145.023Z" fill="#1F3F4D"/>
</svg>
