<svg width="394" height="370" viewBox="0 0 394 370" fill="none" xmlns="http://www.w3.org/2000/svg">
<path opacity="0.15" d="M104.862 52.4814C101.032 58.1823 97.7025 64.2045 94.9116 70.4803L195.389 356.218L210.902 350.767L105.625 51.3843C105.377 51.7443 105.111 52.1128 104.862 52.4814Z" fill="black"/>
<path opacity="0.15" d="M318.545 37.2422C311.57 32.5177 304.263 28.3041 296.68 24.6344L373.956 244.41C377.266 238.777 380.132 232.893 382.527 226.814C383.007 225.597 383.452 224.38 383.889 223.154L318.545 37.2422Z" fill="black"/>
<path opacity="0.15" d="M164.414 12.0007C159.127 13.4702 153.937 15.2679 148.875 17.3833L260.022 333.488L275.536 328.037L164.414 12.0007Z" fill="black"/>
<path opacity="0.15" d="M125.21 363.186C131.006 363.432 136.81 363.386 142.601 363.049L65.7794 144.627C62.3691 150.095 58.2701 155.101 53.583 159.524L125.21 363.186Z" fill="black"/>
<path opacity="0.15" d="M335.01 290.633L235.338 7.15825C234.25 7.04682 233.161 6.92683 232.081 6.83255C227.29 6.41257 222.413 6.1383 217.511 6.01831L321.708 302.333C323.422 300.935 325.076 299.521 326.722 298.047C329.481 295.641 332.244 293.17 335.01 290.633Z" fill="black"/>
<path opacity="0.15" d="M4.30859 225.965L42.8778 335.519C49.764 340.737 57.175 345.224 64.9908 348.907L14.0109 203.93C9.98646 210.901 6.73319 218.29 4.30859 225.965Z" fill="black"/>
<path opacity="0.05" d="M136.669 363.306C140.406 363.22 144.138 363.015 147.863 362.689C228.207 355.678 283.284 336.308 326.721 298.098C327.733 297.241 328.744 296.316 329.747 295.416L136.669 363.306Z" fill="black"/>
<path opacity="0.05" d="M104.863 52.4812C101.605 57.31 98.7164 62.3785 96.2231 67.6431L257.614 10.9207C249.207 8.97721 240.676 7.61974 232.081 6.85811C212.299 5.14392 191.172 5.76103 171.287 10.2865L141.872 20.6059C127.37 27.874 114.574 38.2191 104.863 52.4812Z" fill="black"/>
<path opacity="0.05" d="M1.81433 271.28L386.101 136.151C383.663 126.703 380.511 117.454 376.673 108.484L0.98295 240.622C-0.543798 250.811 -0.262365 261.189 1.81433 271.28Z" fill="black"/>
<path opacity="0.05" d="M24.2017 317.64C31.3243 326.255 39.6864 333.765 49.0145 339.924L384.318 221.997C388.013 211.212 390.298 199.993 391.115 188.622L24.2017 317.64Z" fill="black"/>
<path opacity="0.05" d="M73.0392 130.057C71.3251 134.137 69.3966 138.139 67.271 142.056C59.9343 155.53 49.4349 163.115 38.7041 173.143L349.049 63.9663C341.705 55.6745 333.522 48.1662 324.63 41.5619L73.0392 130.057Z" fill="black"/>
<path d="M382.475 248.43C377.847 239.156 362.762 233.071 353.754 232.222C349.468 231.828 345.183 231.896 341.026 230.877C339.152 230.536 337.423 229.64 336.063 228.305C334.229 226.265 334.066 223.163 334.949 220.523C337.743 212.252 344.189 205.807 346.503 196.953C348.671 188.682 348.697 179.717 344.909 171.9C341.999 166.096 337.455 161.27 331.838 158.015C320.576 151.33 305.817 151.433 294.366 157.621C280.995 164.838 276.316 182.828 278.15 197.047C278.827 202.344 279.984 208.815 275.767 212.089C272.776 214.42 268.499 213.803 264.822 212.843C258.634 211.241 252.565 209.046 246.223 208.172C239.88 207.298 233.058 207.872 227.735 211.412C222.413 214.952 219.105 221.988 221.282 228.005C222.653 231.785 225.876 234.613 229.313 236.696C239.238 242.696 247.252 242.756 257.965 247.23C258.846 247.499 259.61 248.058 260.134 248.815C260.656 249.775 260.356 250.958 260.031 252.004C254.417 270.5 253.414 276.98 243.883 293.787C243.143 295.327 242.12 296.714 240.866 297.875C236.581 301.304 229.724 298.818 225.13 301.818C221.444 304.227 220.596 309.532 222.182 313.672C223.767 317.811 227.213 320.871 230.752 323.46C241.497 331.269 254.137 336.058 267.359 337.327C268.397 337.516 269.468 337.403 270.444 337.002C271.756 336.325 272.33 334.79 272.801 333.393C275.327 325.92 278.138 318.546 281.235 311.272C281.775 310.012 282.538 308.581 283.892 308.383C286.309 308.032 287.089 311.52 286.858 313.946L284.749 335.665C284.586 337.379 284.475 339.325 285.564 340.67C286.389 341.523 287.433 342.133 288.581 342.436C300.573 346.668 313.431 347.846 325.993 345.864C330.501 345.144 335.146 343.91 338.515 340.833C341.883 337.756 343.486 332.339 341.086 328.482C338.352 324.145 331.889 323.34 329.284 318.9C328.092 316.894 327.913 314.452 327.801 312.12C326.893 293.444 329.824 287.513 332.652 269.026C332.866 267.612 333.244 265.992 334.538 265.383C335.33 265.098 336.187 265.048 337.006 265.237C345.089 266.3 348.663 266.883 356.719 267.946C361.228 268.546 365.822 269.137 370.321 268.417C374.821 267.697 379.287 265.469 381.635 261.56C384.515 256.718 384.404 252.295 382.475 248.43Z" fill="#2C5A6E" stroke="#263238" stroke-width="0.572705" stroke-miterlimit="10"/>
<path d="M296.98 161.623C297.25 161.773 297.469 162.001 297.605 162.278C297.741 162.556 297.79 162.868 297.743 163.173C297.696 163.479 297.556 163.763 297.343 163.986C297.13 164.21 296.853 164.362 296.55 164.423C296.247 164.484 295.933 164.451 295.65 164.328C295.366 164.204 295.128 163.997 294.966 163.734C294.804 163.47 294.728 163.164 294.746 162.855C294.764 162.547 294.877 162.252 295.068 162.009C295.274 161.708 295.589 161.5 295.946 161.428C296.303 161.356 296.674 161.426 296.98 161.623Z" stroke="#263238" stroke-width="0.572705" stroke-miterlimit="10"/>
<path d="M291.52 166.492C291.789 166.641 292.005 166.869 292.14 167.145C292.274 167.421 292.321 167.732 292.273 168.036C292.225 168.339 292.086 168.621 291.873 168.842C291.66 169.063 291.384 169.214 291.083 169.274C290.782 169.334 290.469 169.299 290.188 169.176C289.907 169.052 289.67 168.845 289.511 168.583C289.351 168.321 289.275 168.016 289.294 167.709C289.314 167.403 289.426 167.109 289.618 166.869C289.821 166.568 290.135 166.36 290.492 166.29C290.848 166.219 291.217 166.292 291.52 166.492Z" stroke="#263238" stroke-width="0.572705" stroke-miterlimit="10"/>
<path d="M295.171 168.669C295.307 168.743 295.416 168.858 295.485 168.997C295.553 169.136 295.577 169.292 295.553 169.445C295.53 169.598 295.46 169.74 295.352 169.852C295.245 169.963 295.106 170.039 294.955 170.07C294.803 170.1 294.645 170.082 294.504 170.02C294.362 169.957 294.243 169.853 294.163 169.721C294.083 169.588 294.045 169.434 294.055 169.28C294.066 169.126 294.123 168.978 294.22 168.857C294.323 168.708 294.48 168.605 294.657 168.569C294.835 168.534 295.019 168.57 295.171 168.669Z" stroke="#263238" stroke-width="0.572705" stroke-miterlimit="10"/>
<path d="M300.597 158.915C300.716 159.014 300.801 159.148 300.841 159.298C300.881 159.447 300.874 159.605 300.822 159.751C300.769 159.896 300.672 160.022 300.545 160.111C300.419 160.2 300.267 160.248 300.113 160.248C299.958 160.248 299.807 160.2 299.68 160.111C299.553 160.022 299.457 159.896 299.404 159.751C299.351 159.605 299.344 159.447 299.384 159.298C299.424 159.148 299.51 159.014 299.628 158.915C299.758 158.789 299.932 158.718 300.113 158.718C300.294 158.718 300.467 158.789 300.597 158.915Z" stroke="#263238" stroke-width="0.572705" stroke-miterlimit="10"/>
<path d="M251.383 212.818C251.43 213.121 251.383 213.431 251.249 213.707C251.114 213.983 250.898 214.211 250.63 214.36C250.362 214.509 250.054 214.572 249.749 214.541C249.444 214.51 249.155 214.386 248.922 214.186C248.69 213.986 248.524 213.719 248.448 213.422C248.372 213.125 248.388 212.811 248.496 212.524C248.603 212.236 248.796 211.989 249.049 211.815C249.302 211.64 249.602 211.548 249.909 211.549C250.271 211.525 250.629 211.645 250.905 211.882C251.18 212.119 251.352 212.455 251.383 212.818Z" stroke="#263238" stroke-width="0.572705" stroke-miterlimit="10"/>
<path d="M244.192 211.481C244.238 211.784 244.189 212.094 244.053 212.368C243.917 212.643 243.701 212.87 243.432 213.018C243.163 213.165 242.856 213.227 242.551 213.195C242.246 213.163 241.959 213.038 241.727 212.837C241.495 212.636 241.33 212.37 241.255 212.072C241.18 211.775 241.197 211.462 241.305 211.175C241.413 210.888 241.606 210.641 241.859 210.468C242.112 210.294 242.411 210.202 242.718 210.204C243.082 210.18 243.441 210.301 243.717 210.54C243.993 210.779 244.164 211.117 244.192 211.481Z" stroke="#263238" stroke-width="0.572705" stroke-miterlimit="10"/>
<path d="M244.714 215.766C244.739 215.919 244.716 216.075 244.649 216.214C244.581 216.354 244.473 216.469 244.338 216.544C244.203 216.62 244.048 216.652 243.894 216.636C243.74 216.621 243.595 216.558 243.478 216.458C243.36 216.357 243.277 216.222 243.239 216.073C243.201 215.923 243.209 215.765 243.264 215.62C243.318 215.475 243.416 215.351 243.544 215.264C243.671 215.176 243.822 215.13 243.977 215.132C244.067 215.125 244.158 215.136 244.244 215.164C244.33 215.192 244.409 215.237 244.478 215.296C244.546 215.354 244.602 215.426 244.643 215.507C244.683 215.588 244.708 215.676 244.714 215.766Z" stroke="#263238" stroke-width="0.572705" stroke-miterlimit="10"/>
<path d="M255.745 214.052C255.73 214.203 255.668 214.347 255.569 214.462C255.47 214.578 255.338 214.66 255.191 214.699C255.044 214.737 254.888 214.73 254.745 214.677C254.602 214.624 254.479 214.529 254.392 214.404C254.305 214.28 254.258 214.131 254.257 213.979C254.257 213.827 254.303 213.678 254.39 213.553C254.477 213.428 254.6 213.332 254.742 213.279C254.885 213.225 255.04 213.217 255.188 213.255C255.367 213.288 255.525 213.39 255.629 213.54C255.733 213.689 255.775 213.873 255.745 214.052Z" stroke="#263238" stroke-width="0.572705" stroke-miterlimit="10"/>
<path d="M355.665 236.079C355.712 236.382 355.666 236.693 355.531 236.969C355.396 237.244 355.18 237.472 354.912 237.621C354.644 237.77 354.336 237.834 354.031 237.803C353.726 237.772 353.437 237.648 353.205 237.447C352.972 237.247 352.806 236.981 352.73 236.683C352.654 236.386 352.671 236.073 352.778 235.785C352.886 235.498 353.079 235.25 353.331 235.076C353.584 234.902 353.884 234.809 354.191 234.811C354.554 234.787 354.911 234.906 355.187 235.144C355.463 235.381 355.634 235.717 355.665 236.079Z" stroke="#263238" stroke-width="0.572705" stroke-miterlimit="10"/>
<path d="M348.474 234.768C348.519 235.071 348.471 235.381 348.335 235.656C348.199 235.93 347.982 236.157 347.714 236.305C347.445 236.452 347.138 236.514 346.833 236.482C346.528 236.45 346.24 236.325 346.009 236.124C345.777 235.924 345.612 235.657 345.537 235.359C345.461 235.062 345.479 234.749 345.587 234.462C345.695 234.175 345.888 233.928 346.141 233.755C346.393 233.581 346.693 233.489 347 233.491C347.364 233.465 347.725 233.585 348.001 233.824C348.278 234.064 348.448 234.403 348.474 234.768Z" stroke="#263238" stroke-width="0.572705" stroke-miterlimit="10"/>
<path d="M348.997 238.985C349.022 239.137 348.999 239.294 348.931 239.433C348.864 239.572 348.755 239.687 348.62 239.763C348.486 239.838 348.331 239.871 348.177 239.855C348.023 239.84 347.878 239.777 347.76 239.676C347.643 239.576 347.56 239.441 347.522 239.291C347.483 239.141 347.492 238.983 347.546 238.839C347.601 238.694 347.699 238.57 347.826 238.482C347.954 238.395 348.105 238.349 348.26 238.35C348.35 238.343 348.441 238.354 348.526 238.382C348.612 238.411 348.692 238.455 348.76 238.514C348.829 238.573 348.885 238.645 348.926 238.726C348.966 238.807 348.99 238.895 348.997 238.985Z" stroke="#263238" stroke-width="0.572705" stroke-miterlimit="10"/>
<path d="M360.001 237.271C359.943 237.44 359.82 237.579 359.66 237.657C359.499 237.736 359.314 237.748 359.144 237.691C359.032 237.644 358.935 237.565 358.866 237.465C358.797 237.364 358.759 237.246 358.755 237.124C358.752 237.002 358.783 236.882 358.846 236.778C358.909 236.674 359.001 236.59 359.11 236.536C359.219 236.482 359.342 236.461 359.463 236.476C359.584 236.49 359.698 236.538 359.793 236.616C359.887 236.694 359.956 236.796 359.993 236.913C360.03 237.029 360.033 237.153 360.001 237.271Z" stroke="#263238" stroke-width="0.572705" stroke-miterlimit="10"/>
<path d="M236.066 303.67C236.117 303.846 236.132 304.03 236.111 304.212C236.089 304.394 236.032 304.57 235.942 304.73C235.851 304.889 235.73 305.029 235.585 305.142C235.441 305.254 235.275 305.336 235.098 305.384C234.859 305.426 234.614 305.4 234.389 305.308C234.165 305.216 233.972 305.062 233.832 304.865C233.692 304.667 233.611 304.434 233.598 304.192C233.586 303.95 233.643 303.709 233.762 303.498C233.881 303.287 234.058 303.115 234.271 303C234.485 302.886 234.727 302.835 234.968 302.853C235.21 302.871 235.442 302.957 235.636 303.102C235.83 303.246 235.98 303.443 236.066 303.67Z" stroke="#263238" stroke-width="0.572705" stroke-miterlimit="10"/>
<path d="M228.867 304.904C229.015 305.172 229.078 305.48 229.046 305.785C229.015 306.091 228.89 306.379 228.689 306.611C228.488 306.844 228.221 307.009 227.924 307.084C227.626 307.16 227.312 307.142 227.025 307.034C226.738 306.925 226.491 306.731 226.317 306.478C226.144 306.225 226.052 305.924 226.055 305.617C226.057 305.31 226.154 305.011 226.332 304.761C226.51 304.511 226.761 304.321 227.05 304.218C227.382 304.072 227.758 304.062 228.098 304.19C228.438 304.319 228.714 304.575 228.867 304.904Z" stroke="#263238" stroke-width="0.572705" stroke-miterlimit="10"/>
<path d="M230.821 308.701C230.869 308.879 230.844 309.069 230.752 309.229C230.661 309.39 230.51 309.508 230.333 309.558C230.214 309.577 230.093 309.563 229.983 309.516C229.873 309.469 229.778 309.392 229.71 309.294C229.641 309.195 229.602 309.08 229.597 308.96C229.591 308.84 229.62 308.722 229.679 308.618C229.739 308.514 229.826 308.429 229.932 308.372C230.038 308.316 230.157 308.291 230.276 308.299C230.396 308.308 230.51 308.35 230.607 308.421C230.703 308.492 230.777 308.589 230.821 308.701Z" stroke="#263238" stroke-width="0.572705" stroke-miterlimit="10"/>
<path d="M240.574 303.284C240.558 303.458 240.482 303.622 240.358 303.746C240.235 303.871 240.072 303.948 239.897 303.966C239.723 303.983 239.548 303.939 239.402 303.841C239.257 303.743 239.15 303.598 239.1 303.429C239.103 303.247 239.173 303.071 239.297 302.937C239.421 302.802 239.59 302.718 239.772 302.7C239.954 302.682 240.137 302.732 240.284 302.839C240.432 302.947 240.535 303.105 240.574 303.284Z" stroke="#263238" stroke-width="0.572705" stroke-miterlimit="10"/>
<path d="M291.683 328.954C291.987 328.899 292.301 328.94 292.581 329.069C292.862 329.199 293.096 329.412 293.252 329.679C293.407 329.946 293.477 330.254 293.452 330.562C293.427 330.87 293.307 331.163 293.11 331.401C292.913 331.639 292.647 331.811 292.349 331.893C292.051 331.975 291.735 331.964 291.444 331.86C291.153 331.757 290.9 331.567 290.721 331.315C290.541 331.063 290.443 330.763 290.44 330.454C290.409 330.091 290.522 329.73 290.754 329.449C290.987 329.169 291.32 328.991 291.683 328.954Z" stroke="#263238" stroke-width="0.572705" stroke-miterlimit="10"/>
<path d="M290.5 336.17C290.803 336.118 291.114 336.159 291.392 336.289C291.671 336.419 291.902 336.632 292.056 336.897C292.21 337.163 292.278 337.47 292.252 337.776C292.226 338.082 292.106 338.372 291.91 338.608C291.713 338.844 291.449 339.014 291.153 339.095C290.856 339.176 290.542 339.164 290.253 339.061C289.964 338.957 289.713 338.768 289.535 338.518C289.357 338.268 289.26 337.969 289.257 337.662C289.226 337.3 289.34 336.94 289.572 336.661C289.805 336.381 290.138 336.205 290.5 336.17Z" stroke="#263238" stroke-width="0.572705" stroke-miterlimit="10"/>
<path d="M294.708 335.57C294.861 335.544 295.017 335.565 295.157 335.631C295.297 335.696 295.414 335.804 295.491 335.937C295.568 336.071 295.602 336.226 295.588 336.38C295.575 336.534 295.514 336.68 295.415 336.798C295.315 336.917 295.182 337.002 295.033 337.042C294.883 337.082 294.726 337.075 294.58 337.023C294.435 336.97 294.309 336.874 294.22 336.748C294.131 336.621 294.083 336.471 294.083 336.316C294.068 336.135 294.126 335.955 294.243 335.815C294.36 335.676 294.527 335.588 294.708 335.57Z" stroke="#263238" stroke-width="0.572705" stroke-miterlimit="10"/>
<path d="M292.789 324.617C292.874 324.644 292.953 324.688 293.021 324.746C293.089 324.804 293.145 324.875 293.186 324.954C293.227 325.034 293.251 325.121 293.258 325.21C293.265 325.299 293.254 325.389 293.226 325.474C293.219 325.566 293.193 325.655 293.148 325.736C293.104 325.816 293.042 325.886 292.968 325.941C292.894 325.995 292.809 326.033 292.718 326.051C292.628 326.069 292.535 326.067 292.446 326.046C292.356 326.024 292.272 325.984 292.2 325.927C292.128 325.87 292.069 325.798 292.027 325.715C291.986 325.633 291.963 325.543 291.959 325.451C291.956 325.359 291.973 325.267 292.009 325.183C292.038 325.005 292.137 324.846 292.283 324.74C292.429 324.634 292.61 324.59 292.789 324.617Z" stroke="#263238" stroke-width="0.572705" stroke-miterlimit="10"/>
<path d="M314.019 340.49C307.186 340.495 300.389 339.502 293.843 337.542C293.03 337.291 292.33 336.766 291.861 336.056C291.392 335.347 291.184 334.497 291.272 333.651L293.114 314.555C293.251 313.132 293.466 308.229 290.372 304.818C289.458 303.795 288.305 303.016 287.015 302.55C285.725 302.085 284.339 301.948 282.983 302.153C279.607 302.65 277.147 304.827 275.45 308.804C273.101 314.315 270.873 319.989 268.833 325.671C268.273 327.209 267.181 328.495 265.756 329.298C264.33 330.102 262.664 330.369 261.059 330.051C251.465 328.12 242.401 324.138 234.489 318.377C232.252 316.749 229.149 314.255 228.052 311.409C227.854 310.888 227.779 310.329 227.832 309.775C227.886 309.22 228.067 308.685 228.361 308.212C228.669 307.734 229.081 307.331 229.566 307.035C230.052 306.738 230.598 306.554 231.164 306.498C231.866 306.429 232.621 306.378 233.203 306.344C236.692 306.121 241.037 305.838 244.809 302.812C246.704 301.175 248.261 299.184 249.394 296.95C257.725 282.268 259.953 274.666 263.656 262.083C264.385 259.615 265.182 256.941 266.099 253.89C266.519 252.493 267.513 249.227 265.713 245.884C264.515 243.852 262.649 242.298 260.433 241.488C256.293 239.804 252.047 238.392 247.723 237.262C242.383 235.771 237.78 234.485 232.595 231.34C229.707 229.625 227.907 227.757 227.221 225.888C226.192 223.026 228.027 218.809 231.241 216.675C233.812 214.96 237.12 214.103 241.14 214.103C242.559 214.109 243.977 214.209 245.383 214.403C249.446 215.077 253.456 216.04 257.382 217.283C259.302 217.84 261.29 218.415 263.305 218.937C265.647 219.594 268.063 219.949 270.496 219.992C273.802 220.086 277.043 219.052 279.684 217.06C286.489 211.764 285.332 202.995 284.561 197.193L284.441 196.25C282.872 184.105 286.823 168.823 297.408 163.115C302.206 160.559 307.563 159.231 312.999 159.249C318.504 159.199 323.921 160.629 328.684 163.389C333.219 166.034 336.89 169.937 339.252 174.626C342.791 181.928 341.823 189.916 340.417 195.342C339.397 199.25 337.246 202.815 334.975 206.595C332.545 210.329 330.533 214.319 328.975 218.492C327.261 223.566 328.178 228.931 331.366 232.488C333.554 234.787 336.397 236.355 339.509 236.979C342.793 237.694 346.135 238.11 349.494 238.222C350.797 238.299 351.988 238.368 353.154 238.479C361.562 239.276 373.724 245.019 376.844 251.233C377.607 252.767 378.224 254.944 376.209 258.287C375.052 260.215 372.464 261.663 369.293 262.178C368.158 262.348 367.012 262.431 365.864 262.426C363.071 262.353 360.286 262.101 357.525 261.672C353.505 261.149 350.608 260.738 347.711 260.326H347.505C344.643 259.924 341.763 259.469 337.795 258.989C337.122 258.892 336.443 258.84 335.763 258.835C334.402 258.827 333.056 259.119 331.821 259.692C328.855 261.089 327.029 263.909 326.387 268.083C325.598 273.226 324.784 277.511 324.072 281.214C322.238 290.796 320.79 298.356 321.501 312.438C321.613 314.769 321.801 318.66 323.85 322.114C326.018 325.791 329.532 327.788 332.095 329.245C332.583 329.528 333.218 329.888 333.809 330.248C334.262 330.53 334.649 330.905 334.944 331.348C335.24 331.792 335.437 332.293 335.523 332.819C335.607 333.335 335.577 333.863 335.436 334.366C335.296 334.869 335.048 335.336 334.709 335.733C334.575 335.893 334.432 336.045 334.28 336.188C331.932 338.33 327.869 339.188 325.024 339.616C321.384 340.198 317.704 340.49 314.019 340.49ZM284.201 298.904C285.801 298.901 287.385 299.236 288.847 299.888C290.309 300.539 291.617 301.492 292.686 302.684C296.646 307.055 296.397 313.098 296.226 314.838L294.383 333.942C294.369 334.066 294.398 334.19 294.465 334.295C294.532 334.399 294.633 334.478 294.751 334.516C304.392 337.394 314.555 338.073 324.492 336.505C325.907 336.273 330.201 335.588 332.121 333.831C332.179 333.778 332.234 333.72 332.283 333.659C332.327 333.606 332.358 333.544 332.374 333.477C332.39 333.41 332.392 333.341 332.378 333.274C332.366 333.191 332.336 333.112 332.29 333.042C332.244 332.973 332.183 332.914 332.112 332.871C331.563 332.528 330.963 332.194 330.501 331.928C327.638 330.291 323.704 328.054 321.073 323.666C318.63 319.543 318.416 315.155 318.296 312.523C317.584 298.056 319.067 290.342 320.936 280.571C321.647 276.851 322.453 272.643 323.233 267.535C324.038 262.263 326.464 258.647 330.441 256.778C332.095 256.014 333.898 255.625 335.72 255.638C336.538 255.644 337.354 255.704 338.163 255.818C342.14 256.35 345.02 256.752 347.9 257.155H348.105C350.994 257.558 353.882 257.969 357.893 258.501C360.519 258.905 363.166 259.146 365.821 259.221C366.808 259.23 367.795 259.158 368.77 259.006C371.273 258.604 372.944 257.507 373.492 256.598C374.761 254.49 374.461 253.495 373.998 252.578C371.427 247.479 360.233 242.293 352.828 241.556C351.722 241.445 350.557 241.376 349.322 241.299C345.76 241.187 342.217 240.742 338.737 239.97C335.029 239.225 331.639 237.358 329.026 234.622C325.092 230.217 323.935 223.669 326.01 217.48C327.621 212.706 329.986 208.772 332.275 204.967C334.435 201.384 336.466 198.007 337.417 194.536C338.703 189.625 339.586 182.425 336.457 175.988C334.341 171.849 331.065 168.415 327.029 166.106C322.752 163.632 317.888 162.353 312.947 162.404C308.032 162.386 303.189 163.585 298.848 165.892C289.514 170.932 286.078 184.748 287.5 195.847L287.629 196.79C288.383 202.507 289.797 213.143 281.561 219.546C278.367 221.983 274.435 223.254 270.418 223.146C267.72 223.103 265.038 222.714 262.439 221.989C260.382 221.457 258.376 220.874 256.439 220.274C252.668 219.075 248.815 218.147 244.911 217.497C243.648 217.32 242.373 217.228 241.097 217.223C237.669 217.223 234.961 217.9 232.938 219.246C230.915 220.592 229.655 223.429 230.135 224.766C230.547 225.897 232.021 227.294 234.181 228.597C238.997 231.52 243.411 232.754 248.52 234.177C252.962 235.32 257.325 236.752 261.582 238.462C264.479 239.534 266.906 241.591 268.439 244.273C270.864 248.764 269.553 253.067 269.064 254.687C268.147 257.695 267.35 260.386 266.63 262.855C262.867 275.66 260.63 283.425 252.06 298.381C250.733 300.966 248.909 303.264 246.694 305.144C242.152 308.795 237.052 309.121 233.323 309.361C232.775 309.361 232.064 309.446 231.404 309.506C231.313 309.519 231.227 309.55 231.15 309.599C231.073 309.648 231.008 309.713 230.958 309.789C230.921 309.845 230.897 309.909 230.888 309.976C230.879 310.043 230.885 310.111 230.906 310.175C231.806 312.498 235.192 314.949 236.263 315.755C243.817 321.25 252.468 325.05 261.625 326.897C262.491 327.068 263.389 326.924 264.159 326.492C264.929 326.06 265.519 325.368 265.824 324.54C267.881 318.806 270.11 313.072 272.501 307.501C274.635 302.495 277.995 299.633 282.478 298.973C283.05 298.911 283.625 298.888 284.201 298.904Z" fill="white" stroke="#263238" stroke-width="0.572705" stroke-miterlimit="10"/>
<path d="M309.433 181.945C309.225 182.845 308.754 183.663 308.08 184.295C307.407 184.928 306.561 185.346 305.65 185.498C304.739 185.65 303.803 185.528 302.961 185.148C302.119 184.768 301.408 184.147 300.919 183.363C300.43 182.579 300.185 181.668 300.214 180.745C300.243 179.821 300.545 178.927 301.082 178.175C301.619 177.424 302.366 176.848 303.23 176.521C304.095 176.195 305.036 176.131 305.936 176.34C306.534 176.478 307.098 176.733 307.598 177.089C308.097 177.446 308.521 177.898 308.846 178.418C309.17 178.939 309.39 179.518 309.49 180.123C309.591 180.728 309.572 181.347 309.433 181.945Z" fill="white" stroke="#263238" stroke-width="0.572705" stroke-miterlimit="10"/>
<path d="M310.138 239.322C310.984 234.473 307.739 229.855 302.889 229.009C298.039 228.162 293.422 231.408 292.576 236.257C291.729 241.107 294.974 245.724 299.824 246.571C304.674 247.417 309.291 244.172 310.138 239.322Z" fill="#263238" stroke="#263238" stroke-width="0.572705" stroke-miterlimit="10"/>
<path d="M302.191 267.594C301.794 269.313 300.897 270.875 299.612 272.083C298.327 273.291 296.713 274.091 294.974 274.381C293.234 274.671 291.448 274.439 289.84 273.714C288.233 272.989 286.876 271.803 285.943 270.307C285.009 268.811 284.541 267.072 284.596 265.309C284.652 263.546 285.229 261.84 286.254 260.405C287.28 258.971 288.708 257.872 290.358 257.25C292.007 256.627 293.805 256.507 295.523 256.906C297.822 257.443 299.815 258.869 301.065 260.873C302.315 262.876 302.72 265.293 302.191 267.594Z" fill="#263238" stroke="#263238" stroke-width="0.572705" stroke-miterlimit="10"/>
<path d="M327.629 186.162C327.421 187.062 326.95 187.88 326.277 188.512C325.603 189.145 324.757 189.563 323.846 189.715C322.935 189.867 321.999 189.745 321.157 189.365C320.315 188.985 319.605 188.364 319.116 187.58C318.627 186.796 318.381 185.885 318.41 184.961C318.439 184.038 318.741 183.144 319.278 182.392C319.815 181.64 320.563 181.065 321.427 180.738C322.291 180.411 323.232 180.348 324.132 180.557C324.731 180.694 325.296 180.948 325.796 181.304C326.296 181.661 326.72 182.112 327.045 182.633C327.37 183.154 327.589 183.734 327.689 184.339C327.789 184.945 327.769 185.564 327.629 186.162Z" fill="white" stroke="#263238" stroke-width="0.572705" stroke-miterlimit="10"/>
<path d="M309.005 205.284C305.811 204.536 302.894 202.897 300.594 200.557C298.294 198.218 296.705 195.274 296.012 192.067C295.881 191.456 295.998 190.817 296.338 190.293C296.678 189.768 297.213 189.4 297.824 189.269C298.436 189.138 299.074 189.256 299.599 189.596C300.124 189.936 300.492 190.47 300.623 191.082C301.101 193.33 302.188 195.404 303.765 197.076C305.342 198.749 307.348 199.957 309.565 200.567C311.781 201.177 314.122 201.167 316.333 200.537C318.544 199.907 320.539 198.682 322.101 196.996C322.54 196.596 323.113 196.377 323.706 196.381C324.299 196.385 324.868 196.613 325.301 197.018C325.733 197.424 325.997 197.978 326.04 198.569C326.082 199.161 325.9 199.746 325.53 200.21C323.461 202.429 320.846 204.066 317.946 204.957C315.046 205.847 311.963 205.96 309.005 205.284Z" fill="white" stroke="#263238" stroke-width="0.572705" stroke-miterlimit="10"/>
<path d="M252.763 241.402C254.383 241.787 255.891 242.113 257.237 242.379" stroke="#263238" stroke-width="0.572705" stroke-miterlimit="10"/>
<path d="M225.019 224.894C225.019 224.894 221.487 227.088 228.644 232.094C233.59 235.522 241.62 238.41 248.692 240.347" stroke="#263238" stroke-width="0.572705" stroke-miterlimit="10"/>
<path d="M281.595 208.241C281.255 209.664 280.576 210.985 279.615 212.089" stroke="#263238" stroke-width="0.572705" stroke-miterlimit="10"/>
<path d="M281.552 176.451C280.128 181.079 279.91 185.994 280.918 190.73C281.908 195.231 282.335 199.838 282.186 204.444" stroke="#263238" stroke-width="0.572705" stroke-miterlimit="10"/>
<path d="M259.354 332.116C260.867 332.398 262.4 332.556 263.939 332.588" stroke="#263238" stroke-width="0.572705" stroke-miterlimit="10"/>
<path d="M225.73 312.498C225.73 312.498 225.053 315.926 238.586 324.017C244.17 327.424 250.239 329.964 256.585 331.551" stroke="#263238" stroke-width="0.572705" stroke-miterlimit="10"/>
<path d="M367.484 265.246C368.581 265.203 369.627 265.126 370.596 264.998" stroke="#263238" stroke-width="0.572705" stroke-miterlimit="10"/>
<path d="M339.654 261.672C339.654 261.672 353.162 264.843 363.919 265.229" stroke="#263238" stroke-width="0.572705" stroke-miterlimit="10"/>
<path d="M331.392 338.93C332.386 338.459 333.363 337.936 334.331 337.37" stroke="#263238" stroke-width="0.572705" stroke-miterlimit="10"/>
<path d="M291.7 339.822C291.7 339.822 309.93 346.421 327.029 340.679" stroke="#263238" stroke-width="0.572705" stroke-miterlimit="10"/>
<path d="M287.355 82.0596C281.021 73.84 265.019 70.7802 256.045 71.6802C251.76 72.1001 247.56 73.0001 243.291 72.803C241.389 72.8213 239.524 72.2722 237.935 71.2259C235.74 69.5717 234.978 66.529 235.363 63.8035C236.52 55.1383 241.603 47.5787 242.177 38.4421C242.717 29.8712 241.02 21.1117 235.792 14.1692C231.827 9.02398 226.443 5.1509 220.304 3.02703C207.962 -1.36129 193.494 1.57854 183.449 9.88377C171.69 19.4918 170.584 38.0907 175.093 51.7185C176.807 56.7925 179.155 62.9121 175.65 66.949C173.164 69.8031 168.844 70.0088 165.056 69.786C158.671 69.4089 152.294 68.4232 145.909 68.7832C139.523 69.1432 132.932 71.0116 128.381 75.5114C123.83 80.0111 121.953 87.5107 125.244 93.0389C127.318 96.4673 131.012 98.6357 134.792 100.024C145.694 104.018 153.571 102.518 164.936 104.85C165.852 104.947 166.709 105.348 167.37 105.99C168.064 106.847 167.996 108.047 167.884 109.135C165.93 128.368 166.17 134.916 160.068 153.25C159.624 154.899 158.871 156.45 157.848 157.818C154.299 162.009 147.108 160.912 143.157 164.718C140.003 167.786 140.192 173.186 142.532 176.914C144.871 180.642 148.857 183.008 152.817 184.868C164.854 190.468 178.174 192.735 191.386 191.433C192.442 191.424 193.472 191.108 194.351 190.525C195.509 189.608 195.774 187.953 195.971 186.531C197.017 178.708 198.36 170.932 200 163.201C200.283 161.863 200.754 160.312 202.048 159.858C204.345 159.001 205.785 162.318 206.025 164.752L208.133 186.462C208.305 188.176 208.571 190.105 209.899 191.219C210.872 191.895 212.009 192.295 213.19 192.376C225.777 194.213 238.622 192.887 250.568 188.519C254.854 186.942 259.139 184.842 261.882 181.174C264.624 177.505 265.13 171.883 262.002 168.566C258.488 164.829 251.982 165.266 248.571 161.435C247.02 159.721 246.377 157.329 245.82 155.058C241.329 136.905 243.077 130.52 242.289 111.835C242.229 110.412 242.289 108.741 243.437 107.901C244.162 107.472 244.995 107.258 245.837 107.284C253.979 106.778 257.588 106.658 265.722 106.152C270.273 105.87 274.892 105.57 279.161 104.001C283.429 102.433 287.397 99.3728 288.949 95.096C290.946 89.7734 289.986 85.4879 287.355 82.0596Z" fill="#2C5A6E" stroke="#263238" stroke-width="0.572705" stroke-miterlimit="10"/>
<path d="M156.339 98.1471C157.891 98.2157 159.322 98.2499 160.625 98.2499" stroke="#263238" stroke-width="0.572705" stroke-miterlimit="10"/>
<path d="M128.073 87.2878C128.073 87.2878 125.244 90.1162 132.667 93.6475C137.809 96.0988 145.634 97.3587 152.431 97.9329" stroke="#263238" stroke-width="0.572705" stroke-miterlimit="10"/>
<path d="M182.301 62.2693C182.235 63.7304 181.824 65.1551 181.101 66.4262" stroke="#263238" stroke-width="0.572705" stroke-miterlimit="10"/>
<path d="M176.147 31.0797C175.655 35.8943 176.395 40.7549 178.298 45.2046C180.123 49.4285 181.419 53.8619 182.155 58.4038" stroke="#263238" stroke-width="0.572705" stroke-miterlimit="10"/>
<path d="M184.298 188.116C185.839 188.098 187.375 187.954 188.892 187.688" stroke="#263238" stroke-width="0.572705" stroke-miterlimit="10"/>
<path d="M147.511 175.32C147.511 175.32 147.511 178.851 162.365 184.156C168.492 186.423 174.928 187.749 181.452 188.091" stroke="#263238" stroke-width="0.572705" stroke-miterlimit="10"/>
<path d="M277.353 99.9556C278.525 99.5838 279.671 99.1313 280.781 98.6014" stroke="#263238" stroke-width="0.572705" stroke-miterlimit="10"/>
<path d="M245.443 102.133C245.443 102.133 261.213 103.547 273.35 100.993" stroke="#263238" stroke-width="0.572705" stroke-miterlimit="10"/>
<path d="M256.293 180.951C257.151 180.299 258.008 179.597 258.865 178.851" stroke="#263238" stroke-width="0.572705" stroke-miterlimit="10"/>
<path d="M217.51 189.462C217.51 189.462 236.666 192.427 252.351 183.514" stroke="#263238" stroke-width="0.572705" stroke-miterlimit="10"/>
<path d="M186.758 13.3207C187.049 13.4163 187.305 13.599 187.489 13.8443C187.674 14.0895 187.778 14.3854 187.789 14.6921C187.8 14.9988 187.717 15.3014 187.551 15.5593C187.384 15.8171 187.143 16.0178 186.859 16.1341C186.575 16.2504 186.262 16.2767 185.963 16.2097C185.663 16.1426 185.391 15.9853 185.184 15.759C184.977 15.5326 184.844 15.2482 184.804 14.944C184.763 14.6398 184.817 14.3305 184.958 14.0578C185.1 13.7222 185.369 13.4564 185.706 13.3183C186.043 13.1802 186.421 13.1811 186.758 13.3207Z" stroke="#263238" stroke-width="0.572705" stroke-miterlimit="10"/>
<path d="M182.344 19.1404C182.638 19.2353 182.896 19.4184 183.083 19.6648C183.27 19.9113 183.377 20.2092 183.388 20.5182C183.4 20.8272 183.317 21.1325 183.15 21.3925C182.982 21.6525 182.739 21.8549 182.453 21.9721C182.167 22.0893 181.851 22.1157 181.55 22.0477C181.248 21.9798 180.974 21.8207 180.766 21.5921C180.558 21.3636 180.425 21.0765 180.385 20.7698C180.345 20.4631 180.401 20.1516 180.544 19.8775C180.688 19.5434 180.957 19.279 181.293 19.1412C181.63 19.0033 182.007 19.0031 182.344 19.1404Z" stroke="#263238" stroke-width="0.572705" stroke-miterlimit="10"/>
<path d="M186.337 20.5804C186.492 20.676 186.602 20.8289 186.644 21.0057C186.685 21.1824 186.655 21.3685 186.56 21.5232C186.531 21.61 186.484 21.6895 186.421 21.7563C186.359 21.823 186.282 21.8755 186.198 21.9099C186.113 21.9444 186.022 21.9602 185.93 21.9561C185.839 21.952 185.749 21.9282 185.668 21.8863C185.587 21.8443 185.515 21.7853 185.459 21.7132C185.402 21.6411 185.362 21.5577 185.341 21.4687C185.32 21.3796 185.319 21.287 185.337 21.1973C185.355 21.1076 185.392 21.0229 185.446 20.9489C185.48 20.8658 185.53 20.7902 185.593 20.7265C185.656 20.6628 185.732 20.6124 185.814 20.5781C185.897 20.5438 185.986 20.5264 186.076 20.5267C186.166 20.5271 186.255 20.5454 186.337 20.5804Z" stroke="#263238" stroke-width="0.572705" stroke-miterlimit="10"/>
<path d="M189.792 9.96093C189.9 10.0993 189.956 10.2711 189.951 10.4466C189.946 10.6222 189.88 10.7904 189.764 10.9225C189.649 11.0545 189.49 11.142 189.317 11.1699C189.144 11.1977 188.966 11.1642 188.815 11.0752C188.75 11.0121 188.699 10.9368 188.664 10.8536C188.629 10.7704 188.611 10.6811 188.611 10.5909C188.611 10.5007 188.629 10.4114 188.664 10.3282C188.699 10.245 188.75 10.1697 188.815 10.1066C188.868 10.0315 188.936 9.9679 189.015 9.91968C189.093 9.87145 189.181 9.83958 189.272 9.82598C189.363 9.81238 189.457 9.81732 189.546 9.84051C189.635 9.8637 189.719 9.90465 189.792 9.96093Z" stroke="#263238" stroke-width="0.572705" stroke-miterlimit="10"/>
<path d="M151.857 72.323C151.959 72.611 151.971 72.9232 151.89 73.218C151.81 73.5128 151.642 73.7761 151.408 73.9726C151.174 74.1691 150.885 74.2894 150.581 74.3175C150.277 74.3456 149.971 74.2802 149.705 74.1299C149.439 73.9796 149.226 73.7516 149.093 73.4765C148.96 73.2014 148.914 72.8923 148.962 72.5905C149.009 72.2887 149.148 72.0086 149.359 71.7877C149.57 71.5668 149.844 71.4156 150.143 71.3545C150.319 71.305 150.503 71.2908 150.685 71.3128C150.866 71.3347 151.042 71.3923 151.201 71.4823C151.361 71.5723 151.501 71.6929 151.613 71.8372C151.726 71.9815 151.809 72.1466 151.857 72.323Z" stroke="#263238" stroke-width="0.572705" stroke-miterlimit="10"/>
<path d="M144.546 72.4086C144.65 72.6962 144.663 73.0087 144.584 73.3041C144.506 73.5996 144.338 73.8639 144.105 74.0616C143.872 74.2594 143.584 74.3811 143.28 74.4105C142.975 74.44 142.669 74.3757 142.402 74.2263C142.136 74.0769 141.921 73.8495 141.787 73.5746C141.653 73.2998 141.606 72.9905 141.653 72.6883C141.7 72.3862 141.838 72.1055 142.048 71.8839C142.259 71.6624 142.532 71.5105 142.832 71.4487C143.007 71.3979 143.191 71.3824 143.373 71.4033C143.555 71.4242 143.73 71.4809 143.89 71.5702C144.049 71.6595 144.189 71.7796 144.302 71.9236C144.415 72.0675 144.498 72.2324 144.546 72.4086Z" stroke="#263238" stroke-width="0.572705" stroke-miterlimit="10"/>
<path d="M145.874 76.4541C145.875 76.6301 145.813 76.8005 145.701 76.9359C145.589 77.0714 145.433 77.1634 145.26 77.1959C145.087 77.2284 144.908 77.1995 144.754 77.1142C144.6 77.0288 144.481 76.8923 144.417 76.7284C144.407 76.6387 144.414 76.5478 144.439 76.4611C144.464 76.3743 144.506 76.2934 144.563 76.2231C144.619 76.1528 144.69 76.0946 144.769 76.0518C144.849 76.0091 144.936 75.9827 145.026 75.9742C145.202 75.9266 145.39 75.9504 145.549 76.0402C145.707 76.13 145.824 76.2787 145.874 76.4541Z" stroke="#263238" stroke-width="0.572705" stroke-miterlimit="10"/>
<path d="M156.373 72.6316C156.344 72.81 156.246 72.9699 156.1 73.0772C155.954 73.1844 155.773 73.2306 155.593 73.2058C155.503 73.2081 155.414 73.1926 155.33 73.1603C155.246 73.1279 155.169 73.0793 155.104 73.0172C155.038 72.9551 154.986 72.8808 154.949 72.7984C154.913 72.7161 154.893 72.6274 154.891 72.5373C154.918 72.3573 155.015 72.1953 155.161 72.0862C155.307 71.9772 155.49 71.9299 155.671 71.9545C155.853 71.9544 156.028 72.0249 156.159 72.1512C156.29 72.2774 156.367 72.4497 156.373 72.6316Z" stroke="#263238" stroke-width="0.572705" stroke-miterlimit="10"/>
<path d="M258.668 75.1C258.772 75.3898 258.785 75.7045 258.706 76.0018C258.626 76.2992 258.457 76.5651 258.222 76.7637C257.986 76.9623 257.696 77.0841 257.389 77.1128C257.083 77.1415 256.775 77.0757 256.507 76.9243C256.239 76.7728 256.023 76.5429 255.89 76.2655C255.756 75.9881 255.711 75.6764 255.759 75.3724C255.808 75.0684 255.948 74.7865 256.162 74.5647C256.376 74.3429 256.652 74.1917 256.954 74.1315C257.31 74.034 257.689 74.0811 258.011 74.2625C258.332 74.4439 258.568 74.745 258.668 75.1Z" stroke="#263238" stroke-width="0.572705" stroke-miterlimit="10"/>
<path d="M251.357 75.2029C251.393 75.5652 251.284 75.927 251.054 76.2095C250.825 76.4921 250.493 76.6725 250.131 76.7114C249.887 76.7171 249.647 76.6529 249.438 76.5264C249.23 76.3998 249.062 76.2161 248.954 75.9971C248.847 75.7781 248.804 75.5329 248.832 75.2905C248.859 75.0481 248.956 74.8187 249.11 74.6294C249.263 74.44 249.468 74.2987 249.7 74.2221C249.932 74.1456 250.18 74.1369 250.417 74.1973C250.653 74.2576 250.867 74.3844 251.034 74.5626C251.2 74.7408 251.312 74.963 251.357 75.2029Z" stroke="#263238" stroke-width="0.572705" stroke-miterlimit="10"/>
<path d="M252.685 79.2311C252.738 79.3758 252.746 79.5332 252.706 79.6822C252.667 79.8313 252.583 79.9647 252.466 80.0646C252.349 80.1646 252.204 80.2262 252.05 80.2412C251.897 80.2562 251.743 80.2239 251.608 80.1486C251.474 80.0733 251.366 79.9587 251.298 79.8201C251.231 79.6815 251.208 79.5256 251.232 79.3734C251.256 79.2212 251.326 79.08 251.432 78.9687C251.539 78.8575 251.677 78.7816 251.828 78.7511C251.916 78.7263 252.008 78.7191 252.098 78.7298C252.189 78.7405 252.276 78.7689 252.356 78.8135C252.436 78.8581 252.506 78.9179 252.562 78.9896C252.619 79.0612 252.66 79.1433 252.685 79.2311Z" stroke="#263238" stroke-width="0.572705" stroke-miterlimit="10"/>
<path d="M263.15 75.4342C263.122 75.6143 263.025 75.7763 262.879 75.8853C262.733 75.9943 262.551 76.0416 262.37 76.017C262.276 76.0293 262.181 76.0206 262.09 75.9917C262 75.9627 261.917 75.9142 261.848 75.8495C261.779 75.7848 261.725 75.7057 261.69 75.6176C261.655 75.5296 261.639 75.4349 261.645 75.3403C261.651 75.2458 261.678 75.1536 261.723 75.0706C261.769 74.9875 261.832 74.9155 261.909 74.8598C261.985 74.804 262.073 74.7659 262.166 74.7482C262.26 74.7304 262.355 74.7335 262.447 74.7571C262.538 74.7549 262.628 74.7706 262.713 74.8035C262.797 74.8364 262.875 74.8858 262.94 74.9488C263.005 75.0118 263.058 75.0871 263.094 75.1705C263.13 75.2538 263.149 75.3434 263.15 75.4342Z" stroke="#263238" stroke-width="0.572705" stroke-miterlimit="10"/>
<path d="M154.3 164.426C154.5 164.661 154.624 164.953 154.654 165.26C154.683 165.568 154.618 165.878 154.465 166.147C154.313 166.416 154.082 166.632 153.803 166.766C153.524 166.899 153.211 166.944 152.906 166.893C152.601 166.843 152.319 166.7 152.098 166.484C151.877 166.268 151.727 165.989 151.67 165.685C151.612 165.381 151.65 165.067 151.777 164.785C151.904 164.503 152.114 164.267 152.38 164.109C152.678 163.9 153.046 163.816 153.405 163.875C153.764 163.934 154.085 164.132 154.3 164.426Z" stroke="#263238" stroke-width="0.572705" stroke-miterlimit="10"/>
<path d="M147.443 167.04C147.641 167.275 147.762 167.564 147.79 167.87C147.819 168.175 147.753 168.482 147.601 168.749C147.449 169.016 147.22 169.23 146.943 169.362C146.666 169.494 146.355 169.538 146.052 169.488C145.75 169.438 145.47 169.296 145.25 169.082C145.03 168.868 144.881 168.592 144.824 168.29C144.766 167.989 144.802 167.677 144.927 167.397C145.052 167.117 145.26 166.882 145.523 166.723C145.67 166.617 145.836 166.542 146.012 166.5C146.188 166.459 146.37 166.453 146.549 166.482C146.727 166.512 146.898 166.576 147.052 166.672C147.205 166.768 147.338 166.893 147.443 167.04Z" stroke="#263238" stroke-width="0.572705" stroke-miterlimit="10"/>
<path d="M150.109 170.34C150.206 170.457 150.265 170.601 150.277 170.753C150.29 170.905 150.256 171.057 150.18 171.188C150.104 171.32 149.989 171.426 149.852 171.49C149.714 171.555 149.56 171.576 149.41 171.551C149.259 171.525 149.121 171.454 149.012 171.348C148.904 171.241 148.83 171.104 148.802 170.955C148.773 170.805 148.791 170.65 148.853 170.512C148.915 170.373 149.018 170.256 149.149 170.177C149.298 170.073 149.482 170.032 149.662 170.062C149.842 170.093 150.002 170.192 150.109 170.34Z" stroke="#263238" stroke-width="0.572705" stroke-miterlimit="10"/>
<path d="M158.645 163.175C158.716 163.314 158.743 163.472 158.721 163.627C158.699 163.782 158.629 163.926 158.521 164.039C158.413 164.153 158.273 164.23 158.12 164.26C157.966 164.29 157.807 164.272 157.664 164.208C157.522 164.144 157.403 164.037 157.323 163.902C157.244 163.767 157.209 163.611 157.223 163.455C157.236 163.299 157.298 163.151 157.399 163.032C157.5 162.913 157.636 162.828 157.788 162.789C157.953 162.732 158.133 162.74 158.293 162.812C158.452 162.884 158.578 163.014 158.645 163.175Z" stroke="#263238" stroke-width="0.572705" stroke-miterlimit="10"/>
<path d="M213.73 178.542C214.018 178.431 214.334 178.411 214.634 178.485C214.934 178.559 215.204 178.723 215.407 178.955C215.611 179.188 215.738 179.477 215.772 179.784C215.806 180.091 215.745 180.401 215.598 180.672C215.45 180.943 215.222 181.162 214.946 181.3C214.669 181.438 214.357 181.487 214.052 181.442C213.746 181.397 213.462 181.259 213.238 181.047C213.013 180.835 212.859 180.559 212.796 180.257C212.695 179.905 212.736 179.529 212.911 179.208C213.086 178.887 213.38 178.648 213.73 178.542Z" stroke="#263238" stroke-width="0.572705" stroke-miterlimit="10"/>
<path d="M213.953 185.853C214.241 185.741 214.557 185.719 214.857 185.791C215.158 185.864 215.429 186.027 215.634 186.258C215.838 186.489 215.967 186.778 216.003 187.085C216.038 187.392 215.978 187.703 215.831 187.975C215.685 188.247 215.458 188.467 215.182 188.606C214.905 188.744 214.593 188.795 214.287 188.751C213.982 188.706 213.697 188.569 213.471 188.357C213.246 188.146 213.091 187.87 213.028 187.568C212.924 187.218 212.963 186.841 213.136 186.519C213.31 186.198 213.604 185.959 213.953 185.853Z" stroke="#263238" stroke-width="0.572705" stroke-miterlimit="10"/>
<path d="M217.974 184.448C218.152 184.441 218.327 184.498 218.467 184.608C218.607 184.719 218.704 184.875 218.74 185.05C218.776 185.224 218.749 185.406 218.663 185.563C218.578 185.719 218.44 185.841 218.273 185.905C218.095 185.911 217.92 185.855 217.78 185.744C217.64 185.634 217.543 185.478 217.507 185.303C217.471 185.129 217.498 184.947 217.584 184.79C217.669 184.634 217.807 184.512 217.974 184.448Z" stroke="#263238" stroke-width="0.572705" stroke-miterlimit="10"/>
<path d="M213.979 174.026C214.16 174.051 214.323 174.146 214.435 174.29C214.547 174.434 214.599 174.616 214.579 174.797C214.554 174.917 214.496 175.028 214.41 175.116C214.324 175.204 214.215 175.266 214.096 175.294C213.976 175.322 213.851 175.315 213.735 175.274C213.619 175.233 213.517 175.159 213.442 175.062C213.367 174.966 213.321 174.849 213.309 174.727C213.298 174.604 213.322 174.481 213.379 174.372C213.435 174.263 213.522 174.172 213.628 174.111C213.735 174.05 213.856 174.02 213.979 174.026Z" stroke="#263238" stroke-width="0.572705" stroke-miterlimit="10"/>
<path d="M203.299 30.2482C203.268 31.1717 202.964 32.0652 202.425 32.8158C201.886 33.5663 201.136 34.1402 200.271 34.4647C199.406 34.7893 198.464 34.85 197.565 34.6391C196.665 34.4283 195.848 33.9553 195.217 33.2801C194.587 32.605 194.17 31.7579 194.021 30.846C193.872 29.9342 193.996 28.9985 194.379 28.1574C194.761 27.3163 195.384 26.6075 196.17 26.1208C196.955 25.634 197.867 25.3911 198.791 25.4228C200.028 25.4653 201.199 25.9974 202.044 26.9023C202.889 27.8071 203.341 29.0106 203.299 30.2482Z" fill="white" stroke="#263238" stroke-width="0.572705" stroke-miterlimit="10"/>
<path d="M222.01 30.8826C221.979 31.8064 221.674 32.7002 221.135 33.4509C220.596 34.2016 219.846 34.7753 218.98 35.0996C218.114 35.4238 217.172 35.484 216.272 35.2724C215.372 35.0608 214.556 34.587 213.925 33.9109C213.295 33.2349 212.879 32.387 212.731 31.4747C212.583 30.5623 212.708 29.6264 213.092 28.7855C213.476 27.9446 214.101 27.2365 214.887 26.7508C215.674 26.2652 216.587 26.0237 217.51 26.0571C218.123 26.0781 218.725 26.2197 219.283 26.4736C219.84 26.7276 220.343 27.089 220.76 27.5371C221.178 27.9853 221.504 28.5114 221.718 29.0855C221.933 29.6595 222.032 30.2702 222.01 30.8826Z" fill="white" stroke="#263238" stroke-width="0.572705" stroke-miterlimit="10"/>
<path d="M207.371 53.2355C204.092 53.1151 200.915 52.067 198.209 50.2131C195.502 48.3591 193.377 45.7754 192.08 42.7618C191.949 42.4754 191.876 42.1656 191.867 41.8506C191.857 41.5356 191.911 41.222 192.025 40.9281C192.139 40.6343 192.31 40.3663 192.529 40.1399C192.749 39.9135 193.011 39.7334 193.301 39.6102C193.591 39.487 193.903 39.4231 194.218 39.4225C194.533 39.4218 194.845 39.4844 195.136 39.6064C195.426 39.7284 195.689 39.9075 195.909 40.133C196.129 40.3584 196.302 40.6257 196.417 40.9191C197.317 43.0338 198.78 44.8609 200.647 46.2013C202.514 47.5418 204.713 48.3441 207.005 48.5209C209.296 48.6977 211.592 48.2422 213.643 47.2041C215.693 46.1659 217.419 44.5849 218.633 42.6333C218.964 42.1025 219.492 41.7248 220.101 41.5834C220.71 41.4419 221.351 41.5483 221.881 41.879C222.412 42.2098 222.79 42.7378 222.931 43.347C223.073 43.9562 222.966 44.5966 222.636 45.1274C221.023 47.6965 218.765 49.7975 216.086 51.2203C213.407 52.6432 210.402 53.338 207.371 53.2355Z" fill="white" stroke="#263238" stroke-width="0.572705" stroke-miterlimit="10"/>
<path d="M223.655 72.4858C221.856 72.4258 209.505 75.5884 207.131 76.2055C204.799 75.4256 192.697 71.4315 190.897 71.363C188.9 71.303 186.329 88.0077 189.912 88.5048C193.126 88.9762 204.611 84.2194 206.891 83.268C209.093 84.3822 220.227 89.8933 223.467 89.6448C227.075 89.3962 225.653 72.5543 223.655 72.4858Z" fill="#263238" stroke="#263238" stroke-width="0.572705" stroke-miterlimit="10"/>
<path d="M171.064 69.2546L160.693 148.501C160.517 149.853 160.807 151.225 161.514 152.39C162.221 153.555 163.304 154.445 164.585 154.913L194.497 165.969C195.637 166.378 196.889 166.34 198.003 165.863C199.116 165.386 200.007 164.505 200.497 163.398C200.648 163.064 200.889 162.778 201.192 162.572C201.496 162.366 201.85 162.249 202.217 162.232C202.583 162.215 202.947 162.3 203.268 162.477C203.589 162.654 203.855 162.916 204.037 163.235L204.894 164.718C205.425 165.657 206.255 166.393 207.251 166.809C208.248 167.225 209.354 167.297 210.396 167.015L242.383 158.367C243.711 158.009 244.876 157.206 245.683 156.092C246.49 154.978 246.889 153.62 246.814 152.247L242.529 71.5774C242.506 71.0329 242.312 70.5095 241.973 70.0828C241.634 69.6561 241.168 69.3481 240.643 69.2032C240.239 69.0841 239.812 69.064 239.399 69.1447C238.985 69.2253 238.597 69.4044 238.268 69.6667C237.938 69.9291 237.677 70.2669 237.505 70.6517C237.334 71.0365 237.258 71.4569 237.283 71.8774L238.517 122.446C238.54 122.832 238.481 123.218 238.342 123.579C238.204 123.94 237.99 124.268 237.715 124.54C237.44 124.811 237.11 125.021 236.747 125.155C236.385 125.289 235.998 125.345 235.612 125.317L174.621 120.98C174.263 120.955 173.914 120.86 173.593 120.699C173.272 120.538 172.986 120.316 172.752 120.044C172.518 119.772 172.34 119.457 172.228 119.116C172.116 118.775 172.073 118.415 172.101 118.058L175.727 69.7432C175.758 69.3571 175.692 68.9693 175.537 68.6145C175.382 68.2597 175.141 67.9488 174.837 67.7095C174.532 67.4703 174.173 67.31 173.791 67.2432C173.41 67.1763 173.018 67.2048 172.65 67.3262C172.231 67.4669 171.861 67.7223 171.581 68.0632C171.3 68.4042 171.121 68.817 171.064 69.2546Z" fill="white" stroke="#263238" stroke-width="0.572705" stroke-miterlimit="10"/>
<path d="M178.949 131.882C178.911 132.978 178.549 134.038 177.909 134.928C177.269 135.819 176.379 136.499 175.353 136.884C174.326 137.268 173.208 137.34 172.14 137.09C171.073 136.839 170.104 136.278 169.355 135.476C168.606 134.675 168.112 133.67 167.935 132.588C167.757 131.506 167.905 130.396 168.358 129.397C168.812 128.399 169.551 127.557 170.483 126.979C171.414 126.401 172.497 126.112 173.592 126.148C174.321 126.173 175.037 126.341 175.701 126.642C176.364 126.943 176.962 127.373 177.459 127.905C177.957 128.438 178.345 129.063 178.6 129.745C178.856 130.428 178.974 131.154 178.949 131.882Z" fill="#263238" stroke="#263238" stroke-width="0.572705" stroke-miterlimit="10"/>
<path d="M240.232 135.748C240.202 136.846 239.848 137.91 239.213 138.806C238.578 139.702 237.692 140.389 236.666 140.78C235.64 141.172 234.521 141.25 233.451 141.005C232.38 140.76 231.407 140.202 230.654 139.403C229.9 138.604 229.401 137.6 229.22 136.517C229.038 135.434 229.182 134.322 229.633 133.321C230.084 132.32 230.822 131.475 231.754 130.894C232.686 130.313 233.769 130.022 234.866 130.057C236.331 130.106 237.716 130.732 238.721 131.798C239.726 132.864 240.269 134.283 240.232 135.748Z" fill="#263238" stroke="#263238" stroke-width="0.572705" stroke-miterlimit="10"/>
<path d="M184.76 212.132C176.712 205.592 160.436 206.295 151.908 209.227C147.871 210.624 143.954 212.475 139.755 213.255C137.906 213.712 135.964 213.608 134.175 212.955C131.664 211.849 130.224 209.064 129.949 206.33C129.092 197.639 132.281 189.102 130.738 180.085C129.298 171.652 125.595 163.475 118.944 157.921C113.893 153.842 107.764 151.323 101.305 150.67C88.2946 149.239 74.8897 155.427 67.0216 165.78C57.825 177.874 61.0219 196.199 68.5386 208.421C71.3499 212.963 75.0697 218.38 72.5841 223.111C70.8185 226.463 66.6702 227.654 62.9247 228.305C56.625 229.411 50.1968 229.917 44.0686 231.734C37.9404 233.551 31.9579 236.876 28.5638 242.319C25.1697 247.761 25.0754 255.518 29.5409 260.095C32.3522 262.975 36.4491 264.218 40.4431 264.698C51.971 266.078 59.2992 262.803 70.8871 262.461C71.8008 262.344 72.7272 262.537 73.5183 263.009C74.3754 263.669 74.5983 264.869 74.744 265.958C77.2638 285.114 79.0295 291.43 77.3153 310.681C77.2631 312.387 76.8879 314.068 76.2096 315.635C73.724 320.529 66.4559 321.103 63.5161 325.731C61.1505 329.442 62.5733 334.654 65.7102 337.73C68.8472 340.807 73.2698 342.205 77.581 343.104C90.5911 345.784 104.082 344.925 116.647 340.619C117.669 340.36 118.597 339.816 119.321 339.05C120.238 337.893 120.127 336.256 119.981 334.765C119.193 326.914 118.713 319.02 118.524 311.135C118.524 309.764 118.601 308.144 119.75 307.407C121.807 306.087 123.958 308.941 124.755 311.255L131.801 331.902C132.366 333.539 133.061 335.331 134.612 336.119C135.7 336.553 136.885 336.681 138.04 336.488C150.713 335.38 162.91 331.136 173.533 324.137C177.338 321.626 181.058 318.583 182.849 314.383C184.64 310.184 183.878 304.604 180.072 302.093C175.787 299.264 169.564 301.184 165.364 298.244C163.445 296.899 162.279 294.756 161.216 292.673C152.645 276.037 152.902 269.42 147.837 251.421C147.451 250.041 147.126 248.413 148.051 247.324C148.66 246.741 149.42 246.34 150.245 246.167C158.045 243.802 161.533 242.859 169.333 240.493C173.695 239.173 178.118 237.819 181.923 235.308C185.729 232.797 188.866 228.914 189.397 224.397C190.04 218.835 188.112 214.849 184.76 212.132Z" fill="#2C5A6E" stroke="#263238" stroke-width="0.572705" stroke-miterlimit="10"/>
<path d="M61.5107 257.849C63.0278 257.532 64.4249 257.207 65.6591 256.898" stroke="#263238" stroke-width="0.572705" stroke-miterlimit="10"/>
<path d="M31.4353 254.284C31.4353 254.284 29.3954 257.712 37.4349 259.315C43.006 260.421 50.917 259.718 57.6366 258.569" stroke="#263238" stroke-width="0.572705" stroke-miterlimit="10"/>
<path d="M77.8383 216.683C78.1411 218.116 78.0941 219.601 77.7012 221.012" stroke="#263238" stroke-width="0.572705" stroke-miterlimit="10"/>
<path d="M64.2021 187.962C64.8969 192.755 66.8025 197.292 69.739 201.144C72.5533 204.782 74.9054 208.755 76.7414 212.972" stroke="#263238" stroke-width="0.572705" stroke-miterlimit="10"/>
<path d="M110.742 338.168C112.23 337.771 113.683 337.255 115.088 336.625" stroke="#263238" stroke-width="0.572705" stroke-miterlimit="10"/>
<path d="M71.9497 334.816C71.9497 334.816 72.8068 338.245 88.5173 339.727C95.0145 340.425 101.58 340.136 107.99 338.87" stroke="#263238" stroke-width="0.572705" stroke-miterlimit="10"/>
<path d="M179.241 229.805C180.294 229.161 181.299 228.442 182.249 227.654" stroke="#263238" stroke-width="0.572705" stroke-miterlimit="10"/>
<path d="M152.277 239.01C160.354 237.692 168.21 235.267 175.624 231.802" stroke="#263238" stroke-width="0.572705" stroke-miterlimit="10"/>
<path d="M178.77 313.475C179.464 312.618 180.132 311.761 180.758 310.801" stroke="#263238" stroke-width="0.572705" stroke-miterlimit="10"/>
<path d="M143.277 331.285C143.277 331.285 162.571 329.451 175.581 316.955" stroke="#263238" stroke-width="0.572705" stroke-miterlimit="10"/>
<path d="M71.0501 168.36C71.3573 168.39 71.6481 168.512 71.8834 168.712C72.1187 168.912 72.2871 169.179 72.3659 169.477C72.4447 169.775 72.4301 170.091 72.324 170.38C72.218 170.67 72.0257 170.92 71.7729 171.098C71.5202 171.275 71.2192 171.37 70.9106 171.371C70.602 171.371 70.3007 171.277 70.0472 171.101C69.7937 170.925 69.6003 170.676 69.493 170.386C69.3857 170.097 69.3698 169.782 69.4473 169.483C69.4783 169.304 69.5445 169.133 69.642 168.979C69.7394 168.826 69.8663 168.693 70.0152 168.588C70.1642 168.484 70.3323 168.41 70.5099 168.371C70.6875 168.332 70.871 168.328 71.0501 168.36Z" stroke="#263238" stroke-width="0.572705" stroke-miterlimit="10"/>
<path d="M68.093 175.046C68.4008 175.07 68.6936 175.189 68.9317 175.386C69.1699 175.582 69.3419 175.847 69.4247 176.145C69.5074 176.442 69.4969 176.758 69.3945 177.05C69.292 177.341 69.1027 177.594 68.8519 177.774C68.6012 177.954 68.3011 178.053 67.9924 178.058C67.6836 178.062 67.3809 177.971 67.1253 177.798C66.8696 177.625 66.6733 177.377 66.5628 177.089C66.4523 176.801 66.4329 176.485 66.5074 176.186C66.5704 175.826 66.7716 175.506 67.0679 175.293C67.3643 175.079 67.7322 174.991 68.093 175.046Z" stroke="#263238" stroke-width="0.572705" stroke-miterlimit="10"/>
<path d="M72.3187 175.526C72.4797 175.598 72.61 175.725 72.687 175.884C72.7639 176.043 72.7826 176.224 72.7397 176.396C72.6969 176.567 72.5952 176.718 72.4525 176.822C72.3098 176.926 72.135 176.977 71.9587 176.965C71.7977 176.893 71.6674 176.766 71.5904 176.607C71.5135 176.448 71.4948 176.267 71.5377 176.095C71.5805 175.924 71.6822 175.773 71.8249 175.669C71.9676 175.565 72.1424 175.514 72.3187 175.526Z" stroke="#263238" stroke-width="0.572705" stroke-miterlimit="10"/>
<path d="M73.2356 164.4C73.3818 164.45 73.5092 164.543 73.6006 164.668C73.6921 164.792 73.7432 164.942 73.747 165.096C73.7509 165.25 73.7073 165.402 73.6221 165.531C73.537 165.659 73.4144 165.759 73.2708 165.816C73.1273 165.873 72.9698 165.884 72.8196 165.849C72.6694 165.813 72.5337 165.732 72.4308 165.617C72.3279 165.502 72.2628 165.358 72.2442 165.205C72.2257 165.052 72.2546 164.897 72.3271 164.76C72.4005 164.593 72.5372 164.461 72.7073 164.394C72.8774 164.326 73.0673 164.329 73.2356 164.4Z" stroke="#263238" stroke-width="0.572705" stroke-miterlimit="10"/>
<path d="M50.6594 233.816C50.8297 234.074 50.9167 234.378 50.9085 234.687C50.9004 234.997 50.7975 235.296 50.6138 235.544C50.4301 235.793 50.1744 235.979 49.8814 236.077C49.5885 236.176 49.2723 236.182 48.9757 236.095C48.679 236.008 48.4164 235.832 48.2231 235.591C48.0299 235.349 47.9155 235.055 47.8953 234.746C47.8751 234.438 47.9502 234.13 48.1104 233.866C48.2706 233.602 48.5082 233.393 48.7909 233.268C49.112 233.096 49.4879 233.057 49.8374 233.16C50.1869 233.262 50.4821 233.498 50.6594 233.816Z" stroke="#263238" stroke-width="0.572705" stroke-miterlimit="10"/>
<path d="M43.5629 235.582C43.6469 235.926 43.6072 236.289 43.4507 236.606C43.2941 236.924 43.0308 237.177 42.7069 237.32C42.3829 237.463 42.0189 237.487 41.6786 237.389C41.3384 237.291 41.0436 237.076 40.8459 236.782C40.7411 236.441 40.7717 236.072 40.9313 235.753C41.0908 235.434 41.3672 235.189 41.703 235.068C42.0182 234.891 42.3904 234.846 42.7387 234.942C43.0869 235.039 43.3831 235.269 43.5629 235.582Z" stroke="#263238" stroke-width="0.572705" stroke-miterlimit="10"/>
<path d="M45.7827 239.208C45.8635 239.339 45.9022 239.492 45.8935 239.646C45.8848 239.8 45.8292 239.947 45.7341 240.068C45.639 240.19 45.509 240.279 45.3617 240.324C45.2143 240.369 45.0566 240.368 44.9099 240.321C44.7631 240.274 44.6343 240.183 44.5408 240.061C44.4473 239.938 44.3936 239.79 44.3869 239.636C44.3803 239.482 44.4209 239.329 44.5034 239.199C44.586 239.069 44.7064 238.967 44.8485 238.908C44.9293 238.865 45.0179 238.839 45.1089 238.831C45.2 238.823 45.2918 238.833 45.3788 238.861C45.4658 238.889 45.5464 238.934 45.6158 238.993C45.6852 239.053 45.7419 239.126 45.7827 239.208Z" stroke="#263238" stroke-width="0.572705" stroke-miterlimit="10"/>
<path d="M55.125 233.097C55.1763 233.242 55.182 233.399 55.1414 233.547C55.1007 233.696 55.0157 233.828 54.8977 233.927C54.7796 234.025 54.6343 234.086 54.481 234.099C54.3278 234.113 54.1741 234.08 54.0404 234.003C53.9068 233.927 53.7996 233.812 53.7333 233.673C53.667 233.534 53.6447 233.378 53.6695 233.227C53.6943 233.075 53.7649 232.934 53.8718 232.824C53.9788 232.713 54.117 232.638 54.2679 232.608C54.3563 232.583 54.4486 232.577 54.5397 232.588C54.6307 232.599 54.7186 232.628 54.7983 232.674C54.878 232.719 54.9479 232.78 55.004 232.852C55.0601 232.925 55.1012 233.008 55.125 233.097Z" stroke="#263238" stroke-width="0.572705" stroke-miterlimit="10"/>
<path d="M155.242 211.952C155.412 212.21 155.499 212.514 155.491 212.823C155.483 213.132 155.38 213.431 155.196 213.68C155.013 213.928 154.757 214.115 154.464 214.213C154.171 214.312 153.855 214.318 153.558 214.231C153.262 214.144 152.999 213.968 152.806 213.726C152.612 213.485 152.498 213.19 152.478 212.882C152.458 212.573 152.533 212.266 152.693 212.002C152.853 211.737 153.091 211.528 153.373 211.404C153.695 211.232 154.07 211.193 154.42 211.295C154.769 211.398 155.065 211.634 155.242 211.952Z" stroke="#263238" stroke-width="0.572705" stroke-miterlimit="10"/>
<path d="M148.146 213.718C148.314 213.974 148.4 214.277 148.391 214.584C148.383 214.891 148.28 215.188 148.097 215.435C147.914 215.681 147.659 215.866 147.368 215.963C147.077 216.061 146.762 216.067 146.468 215.98C146.173 215.893 145.912 215.717 145.72 215.478C145.529 215.238 145.415 214.944 145.395 214.638C145.375 214.331 145.45 214.026 145.609 213.763C145.769 213.501 146.005 213.293 146.286 213.169C146.606 212.998 146.98 212.959 147.328 213.062C147.676 213.164 147.97 213.4 148.146 213.718Z" stroke="#263238" stroke-width="0.572705" stroke-miterlimit="10"/>
<path d="M150.366 217.343C150.405 217.514 150.384 217.693 150.305 217.85C150.227 218.007 150.097 218.131 149.936 218.202C149.776 218.273 149.596 218.286 149.427 218.239C149.259 218.192 149.112 218.087 149.012 217.943C148.959 217.773 148.974 217.588 149.054 217.429C149.134 217.269 149.272 217.146 149.44 217.086C149.597 216.999 149.782 216.977 149.955 217.025C150.129 217.073 150.276 217.188 150.366 217.343Z" stroke="#263238" stroke-width="0.572705" stroke-miterlimit="10"/>
<path d="M159.708 211.232C159.716 211.322 159.706 211.413 159.679 211.499C159.652 211.586 159.608 211.666 159.55 211.735C159.492 211.804 159.421 211.862 159.34 211.903C159.26 211.945 159.172 211.97 159.082 211.978C158.994 212.005 158.901 212.014 158.809 212.003C158.717 211.993 158.628 211.964 158.548 211.919C158.468 211.873 158.398 211.811 158.342 211.737C158.287 211.663 158.247 211.579 158.225 211.489C158.229 211.315 158.293 211.147 158.407 211.014C158.52 210.882 158.676 210.793 158.848 210.762C159.02 210.732 159.197 210.762 159.349 210.848C159.501 210.934 159.619 211.069 159.682 211.232H159.708Z" stroke="#263238" stroke-width="0.572705" stroke-miterlimit="10"/>
<path d="M74.2213 322.903C74.4697 323.086 74.6558 323.342 74.7542 323.635C74.8527 323.928 74.8589 324.244 74.7719 324.54C74.6849 324.837 74.509 325.099 74.2679 325.293C74.0268 325.486 73.7322 325.6 73.4239 325.621C73.1156 325.641 72.8084 325.566 72.544 325.406C72.2796 325.247 72.0706 325.009 71.9454 324.727C71.8202 324.445 71.7847 324.13 71.8437 323.827C71.9028 323.524 72.0536 323.246 72.2757 323.031C72.5181 322.758 72.8581 322.592 73.2221 322.568C73.5862 322.544 73.9452 322.664 74.2213 322.903Z" stroke="#263238" stroke-width="0.572705" stroke-miterlimit="10"/>
<path d="M68.1788 327C68.4273 327.183 68.6133 327.439 68.7117 327.732C68.8102 328.025 68.8164 328.341 68.7294 328.637C68.6424 328.934 68.4665 329.196 68.2254 329.389C67.9843 329.583 67.6897 329.697 67.3814 329.718C67.0731 329.738 66.7659 329.663 66.5015 329.503C66.2371 329.344 66.0282 329.106 65.9029 328.824C65.7777 328.541 65.7422 328.227 65.8013 327.924C65.8603 327.621 66.0111 327.343 66.2332 327.128C66.4756 326.855 66.8156 326.689 67.1797 326.665C67.5438 326.641 67.9027 326.761 68.1788 327Z" stroke="#263238" stroke-width="0.572705" stroke-miterlimit="10"/>
<path d="M71.5129 329.64C71.6373 329.732 71.7304 329.86 71.7795 330.006C71.8286 330.153 71.8315 330.311 71.7876 330.46C71.7437 330.608 71.6552 330.74 71.5342 330.836C71.4132 330.932 71.2654 330.989 71.1109 330.999C70.9565 331.008 70.8028 330.97 70.6708 330.889C70.5388 330.809 70.4348 330.689 70.3729 330.547C70.3111 330.406 70.2944 330.248 70.325 330.096C70.3557 329.945 70.4322 329.806 70.5443 329.7C70.666 329.565 70.8354 329.483 71.0164 329.472C71.1974 329.461 71.3756 329.521 71.5129 329.64Z" stroke="#263238" stroke-width="0.572705" stroke-miterlimit="10"/>
<path d="M78.1635 320.666C78.2397 320.832 78.2474 321.021 78.1848 321.193C78.1222 321.365 77.9945 321.505 77.8293 321.583C77.7577 321.639 77.6749 321.679 77.5865 321.7C77.4981 321.722 77.4061 321.724 77.3169 321.706C77.2276 321.689 77.1431 321.653 77.0691 321.6C76.9951 321.547 76.9334 321.479 76.8881 321.4C76.8428 321.321 76.8149 321.233 76.8065 321.143C76.798 321.052 76.8091 320.961 76.839 320.875C76.869 320.789 76.917 320.711 76.9799 320.645C77.0428 320.579 77.1191 320.528 77.2036 320.494C77.354 320.391 77.5391 320.351 77.7187 320.383C77.8984 320.415 78.0582 320.517 78.1635 320.666Z" stroke="#263238" stroke-width="0.572705" stroke-miterlimit="10"/>
<path d="M135.306 322.954C135.561 322.779 135.863 322.686 136.173 322.689C136.482 322.691 136.783 322.789 137.035 322.968C137.287 323.147 137.478 323.399 137.581 323.69C137.685 323.982 137.697 324.298 137.616 324.596C137.534 324.894 137.362 325.16 137.125 325.357C136.887 325.555 136.594 325.675 136.286 325.7C135.978 325.726 135.669 325.657 135.402 325.501C135.135 325.346 134.922 325.112 134.792 324.831C134.614 324.513 134.569 324.139 134.665 323.787C134.761 323.436 134.991 323.137 135.306 322.954Z" stroke="#263238" stroke-width="0.572705" stroke-miterlimit="10"/>
<path d="M137.209 330.016C137.463 329.844 137.763 329.753 138.07 329.757C138.377 329.76 138.675 329.858 138.925 330.036C139.175 330.215 139.364 330.465 139.466 330.754C139.569 331.043 139.581 331.357 139.5 331.653C139.418 331.949 139.249 332.213 139.013 332.409C138.777 332.605 138.487 332.725 138.181 332.751C137.875 332.777 137.569 332.709 137.303 332.556C137.038 332.402 136.825 332.171 136.695 331.894C136.605 331.737 136.547 331.564 136.524 331.384C136.501 331.205 136.514 331.022 136.561 330.848C136.609 330.674 136.691 330.51 136.802 330.368C136.913 330.225 137.052 330.106 137.209 330.016Z" stroke="#263238" stroke-width="0.572705" stroke-miterlimit="10"/>
<path d="M140.792 327.728C140.919 327.64 141.07 327.594 141.225 327.594C141.38 327.595 141.531 327.644 141.657 327.734C141.783 327.823 141.879 327.95 141.931 328.095C141.983 328.241 141.989 328.4 141.948 328.549C141.907 328.698 141.821 328.831 141.701 328.93C141.582 329.029 141.435 329.088 141.281 329.101C141.127 329.113 140.972 329.078 140.839 328.999C140.705 328.921 140.599 328.803 140.535 328.662C140.445 328.504 140.422 328.317 140.47 328.142C140.518 327.967 140.634 327.818 140.792 327.728Z" stroke="#263238" stroke-width="0.572705" stroke-miterlimit="10"/>
<path d="M134.509 318.506C134.69 318.487 134.871 318.54 135.012 318.654C135.154 318.768 135.244 318.934 135.264 319.114C135.288 319.202 135.296 319.294 135.285 319.385C135.274 319.475 135.246 319.563 135.201 319.642C135.157 319.722 135.097 319.792 135.025 319.848C134.954 319.905 134.871 319.947 134.784 319.971C134.602 319.986 134.423 319.93 134.282 319.815C134.142 319.7 134.051 319.535 134.029 319.354C134.005 319.267 133.997 319.176 134.008 319.086C134.019 318.996 134.048 318.909 134.092 318.83C134.137 318.751 134.197 318.682 134.268 318.626C134.34 318.57 134.422 318.53 134.509 318.506Z" stroke="#263238" stroke-width="0.572705" stroke-miterlimit="10"/>
<path d="M91.0461 181.037C91.2262 181.942 91.1338 182.881 90.7806 183.734C90.4274 184.588 89.8293 185.317 89.0617 185.83C88.2942 186.344 87.3917 186.618 86.4682 186.619C85.5448 186.62 84.6419 186.347 83.8735 185.834C83.1052 185.322 82.5059 184.594 82.1514 183.741C81.7969 182.888 81.7031 181.95 81.8818 181.044C82.0605 180.138 82.5037 179.305 83.1555 178.651C83.8072 177.997 84.6382 177.55 85.5435 177.368C86.1457 177.247 86.7659 177.246 87.3686 177.365C87.9713 177.484 88.5446 177.72 89.0557 178.061C89.5668 178.402 90.0057 178.84 90.3472 179.351C90.6888 179.861 90.9262 180.434 91.0461 181.037Z" fill="white" stroke="#263238" stroke-width="0.572705" stroke-miterlimit="10"/>
<path d="M109.362 177.36C109.544 178.265 109.453 179.205 109.101 180.059C108.749 180.913 108.152 181.643 107.385 182.158C106.618 182.673 105.715 182.948 104.791 182.95C103.868 182.952 102.964 182.68 102.195 182.168C101.426 181.657 100.826 180.929 100.47 180.076C100.115 179.224 100.02 178.285 100.199 177.378C100.377 176.472 100.819 175.639 101.471 174.984C102.123 174.329 102.954 173.882 103.859 173.7C104.461 173.579 105.081 173.577 105.683 173.696C106.285 173.814 106.858 174.05 107.369 174.39C107.88 174.73 108.319 175.167 108.661 175.676C109.003 176.186 109.241 176.758 109.362 177.36Z" fill="white" stroke="#263238" stroke-width="0.572705" stroke-miterlimit="10"/>
<path d="M113.159 245.482C113.341 246.388 113.25 247.327 112.898 248.182C112.546 249.036 111.949 249.767 111.181 250.282C110.414 250.797 109.511 251.072 108.587 251.074C107.663 251.075 106.759 250.802 105.99 250.29C105.221 249.778 104.621 249.049 104.266 248.195C103.911 247.342 103.818 246.403 103.997 245.496C104.176 244.589 104.621 243.756 105.273 243.102C105.926 242.448 106.759 242.003 107.665 241.822C108.878 241.582 110.138 241.832 111.167 242.518C112.197 243.204 112.913 244.269 113.159 245.482Z" fill="white" stroke="#263238" stroke-width="0.572705" stroke-miterlimit="10"/>
<path d="M117.444 266.969C117.627 267.875 117.536 268.815 117.184 269.669C116.832 270.524 116.234 271.254 115.467 271.769C114.7 272.284 113.797 272.56 112.872 272.561C111.948 272.563 111.044 272.29 110.275 271.777C109.506 271.265 108.906 270.536 108.552 269.683C108.197 268.829 108.103 267.89 108.283 266.983C108.462 266.077 108.906 265.244 109.559 264.59C110.212 263.936 111.044 263.49 111.951 263.309C113.164 263.069 114.423 263.319 115.453 264.005C116.482 264.691 117.198 265.757 117.444 266.969Z" fill="white" stroke="#263238" stroke-width="0.572705" stroke-miterlimit="10"/>
<path d="M100.302 202.473C97.083 203.109 93.7493 202.819 90.688 201.637C87.6266 200.455 84.963 198.43 83.0061 195.796C82.6345 195.292 82.478 194.662 82.5713 194.043C82.6645 193.424 82.9997 192.868 83.5032 192.496C84.0067 192.124 84.6373 191.968 85.2561 192.061C85.8749 192.154 86.4314 192.49 86.803 192.993C88.1673 194.843 90.0133 196.282 92.1397 197.154C94.2661 198.026 96.5911 198.297 98.8612 197.938C101.131 197.579 103.259 196.604 105.012 195.118C106.766 193.632 108.078 191.694 108.805 189.513C109.004 188.92 109.43 188.43 109.99 188.151C110.55 187.872 111.198 187.827 111.792 188.026C112.385 188.225 112.875 188.652 113.154 189.212C113.433 189.772 113.478 190.42 113.279 191.013C112.31 193.893 110.601 196.468 108.324 198.479C106.046 200.491 103.28 201.868 100.302 202.473Z" fill="white" stroke="#263238" stroke-width="0.572705" stroke-miterlimit="10"/>
<path d="M117.204 316.175C116.185 316.065 115.2 315.742 114.314 315.227C113.428 314.712 112.66 314.015 112.062 313.183C111.204 312.223 110.742 311.641 109.49 311.469C108.239 311.298 107.63 311.803 106.619 312.575C105.874 313.272 104.988 313.801 104.022 314.126C103.055 314.451 102.029 314.566 101.015 314.461C99.9999 314.356 99.0195 314.035 98.1396 313.519C97.2597 313.002 96.5007 312.304 95.9139 311.469C95.0569 310.509 94.594 309.926 93.3427 309.798C92.0913 309.669 91.4742 310.132 90.4714 310.903C89.7265 311.6 88.8407 312.129 87.8739 312.455C86.9071 312.78 85.8817 312.894 84.867 312.789C83.8523 312.685 82.8719 312.363 81.9919 311.847C81.112 311.331 80.3531 310.632 79.7663 309.798C78.9092 308.838 78.4464 308.255 77.195 308.126C76.944 308.101 76.7006 308.026 76.4786 307.906C76.2566 307.786 76.0604 307.623 75.9013 307.427C75.7421 307.231 75.623 307.006 75.5509 306.764C75.4788 306.523 75.455 306.269 75.4808 306.018C75.5067 305.767 75.5818 305.524 75.7018 305.302C75.8217 305.08 75.9843 304.883 76.18 304.724C76.3758 304.565 76.6011 304.446 76.8429 304.374C77.0847 304.302 77.3383 304.278 77.5893 304.304C78.6022 304.415 79.5802 304.738 80.4591 305.254C81.338 305.77 82.0979 306.465 82.689 307.295C83.5461 308.255 84.0175 308.829 85.2603 308.958C86.5031 309.086 87.1287 308.624 88.1315 307.852C88.8777 307.157 89.7641 306.63 90.731 306.306C91.698 305.982 92.7232 305.869 93.7375 305.975C94.7518 306.08 95.7317 306.402 96.6113 306.918C97.4908 307.434 98.2496 308.133 98.8366 308.966C99.6937 309.926 100.165 310.501 101.408 310.638C102.651 310.775 103.276 310.303 104.279 309.532C105.024 308.835 105.91 308.306 106.877 307.981C107.844 307.656 108.869 307.541 109.884 307.646C110.898 307.751 111.879 308.072 112.759 308.588C113.639 309.104 114.398 309.803 114.984 310.638C115.841 311.598 116.313 312.181 117.556 312.309C118.062 312.361 118.528 312.613 118.849 313.008C119.171 313.404 119.322 313.911 119.27 314.418C119.217 314.924 118.966 315.39 118.571 315.711C118.175 316.033 117.668 316.184 117.161 316.132L117.204 316.175Z" fill="white" stroke="#263238" stroke-width="0.572705" stroke-miterlimit="10"/>
<path d="M69.5926 261.578C68.8812 259.375 69.8498 257.764 70.5526 256.589C71.1525 255.595 71.5125 255.004 71.1868 254.018C70.8611 253.033 70.2269 252.75 69.1641 252.304C67.9042 251.755 66.1728 251.018 65.4614 248.816C64.7501 246.613 65.7186 245.002 66.43 243.827C67.0214 242.833 67.3813 242.233 67.0642 241.256C66.7471 240.279 66.0957 239.988 65.0329 239.542C63.773 239.002 62.0502 238.256 61.3388 236.062C60.6274 233.868 61.596 232.248 62.2988 231.074C62.8987 230.08 63.2587 229.48 62.933 228.502C62.8828 228.053 62.9895 227.6 63.2349 227.22C63.4804 226.84 63.8496 226.556 64.28 226.417C64.7105 226.278 65.1759 226.292 65.5973 226.456C66.0187 226.621 66.3704 226.926 66.5928 227.32C67.3042 229.522 66.3357 231.134 65.6329 232.308C65.0329 233.302 64.6729 233.902 64.9986 234.879C65.3243 235.856 65.9586 236.148 67.0214 236.593C68.2813 237.133 70.0126 237.879 70.7154 240.073C71.4182 242.267 70.4583 243.887 69.7555 245.07C69.1641 246.056 68.8041 246.656 69.1212 247.641C69.4384 248.627 70.0897 248.918 71.1525 249.356C72.4125 249.896 74.1352 250.641 74.8466 252.844C75.558 255.047 74.5895 256.658 73.8867 257.832C73.2867 258.826 72.9267 259.418 73.2524 260.403C73.3108 260.857 73.2086 261.316 72.9636 261.701C72.7186 262.087 72.3462 262.374 71.9113 262.514C71.4763 262.653 71.0062 262.636 70.5826 262.465C70.159 262.294 69.8088 261.98 69.5926 261.578Z" fill="white" stroke="#263238" stroke-width="0.572705" stroke-miterlimit="10"/>
<path d="M145.112 246.433C144.4 244.23 145.369 242.619 146.071 241.436C146.671 240.45 147.031 239.85 146.706 238.865C146.38 237.879 145.746 237.588 144.683 237.151C143.423 236.611 141.692 235.865 140.989 233.662C140.286 231.46 141.246 229.848 141.949 228.674C142.54 227.68 142.9 227.088 142.583 226.103C142.266 225.117 141.615 224.834 140.56 224.389C139.292 223.849 137.569 223.103 136.858 220.9C136.146 218.697 137.115 217.086 137.826 215.912C138.418 214.918 138.778 214.326 138.452 213.341C138.391 212.887 138.491 212.426 138.735 212.038C138.979 211.65 139.352 211.361 139.788 211.22C140.224 211.079 140.695 211.096 141.12 211.267C141.545 211.439 141.896 211.754 142.112 212.158C142.823 214.361 141.855 215.972 141.152 217.146C140.552 218.132 140.2 218.732 140.518 219.717C140.835 220.703 141.477 220.994 142.54 221.432C143.8 221.971 145.532 222.717 146.243 224.92C146.954 227.123 145.986 228.734 145.274 229.908C144.683 230.902 144.323 231.494 144.64 232.479C144.957 233.465 145.609 233.748 146.671 234.194C147.931 234.742 149.654 235.479 150.366 237.682C151.077 239.885 150.108 241.496 149.406 242.67C148.806 243.665 148.446 244.265 148.771 245.242C148.822 245.691 148.715 246.144 148.469 246.524C148.224 246.904 147.855 247.188 147.424 247.327C146.994 247.466 146.529 247.452 146.107 247.288C145.686 247.123 145.334 246.818 145.112 246.424V246.433Z" fill="white" stroke="#263238" stroke-width="0.572705" stroke-miterlimit="10"/>
<path d="M115.73 323.434C114.711 323.326 113.725 323.004 112.839 322.489C111.953 321.973 111.186 321.276 110.588 320.443C109.731 319.483 109.268 318.9 108.017 318.772C106.765 318.643 106.148 319.106 105.145 319.877C104.399 320.571 103.513 321.098 102.547 321.422C101.58 321.746 100.556 321.859 99.5419 321.754C98.5281 321.649 97.5483 321.329 96.6684 320.815C95.7886 320.3 95.0289 319.604 94.4403 318.772C93.5832 317.812 93.1204 317.229 91.869 317.1C90.6177 316.972 90.0006 317.434 88.9978 318.206C88.2516 318.9 87.3655 319.427 86.3991 319.751C85.4326 320.074 84.4081 320.188 83.3943 320.083C82.3804 319.978 81.4007 319.658 80.5208 319.143C79.6409 318.629 78.8812 317.932 78.2927 317.1C77.4356 316.14 76.9728 315.557 75.7214 315.386C75.4704 315.36 75.227 315.285 75.005 315.165C74.783 315.045 74.5868 314.883 74.4276 314.687C74.2685 314.491 74.1494 314.266 74.0773 314.024C74.0051 313.782 73.9813 313.529 74.0072 313.278C74.0331 313.027 74.1082 312.783 74.2281 312.561C74.3481 312.339 74.5106 312.143 74.7064 311.984C74.9022 311.825 75.1274 311.706 75.3692 311.633C75.611 311.561 75.8647 311.537 76.1157 311.563C77.128 311.673 78.1058 311.995 78.9847 312.509C79.8636 313.023 80.6239 313.717 81.2154 314.546C82.0725 315.506 82.5439 316.089 83.7866 316.217C85.0294 316.346 85.6551 315.883 86.6579 315.112C87.404 314.417 88.2904 313.889 89.2574 313.566C90.2244 313.242 91.2495 313.129 92.2638 313.234C93.2781 313.34 94.2581 313.661 95.1376 314.178C96.0172 314.694 96.776 315.392 97.363 316.226C98.2201 317.186 98.6915 317.76 99.9343 317.889C101.177 318.017 101.803 317.554 102.806 316.783C103.552 316.088 104.438 315.561 105.405 315.237C106.372 314.913 107.397 314.8 108.411 314.906C109.426 315.011 110.406 315.333 111.285 315.849C112.165 316.365 112.924 317.063 113.511 317.897C114.368 318.857 114.839 319.431 116.082 319.611C116.333 319.638 116.576 319.714 116.798 319.834C117.02 319.955 117.216 320.118 117.374 320.314C117.533 320.51 117.652 320.735 117.723 320.977C117.795 321.219 117.818 321.473 117.792 321.724C117.765 321.975 117.69 322.219 117.569 322.44C117.449 322.662 117.286 322.858 117.09 323.017C116.893 323.176 116.668 323.294 116.426 323.366C116.184 323.437 115.93 323.461 115.679 323.434H115.73Z" fill="white" stroke="#263238" stroke-width="0.572705" stroke-miterlimit="10"/>
<path d="M125.792 314.452C126.685 313.958 127.463 313.281 128.076 312.466C128.689 311.651 129.123 310.715 129.349 309.72C129.743 308.521 129.975 307.792 131.063 307.149C132.152 306.506 132.915 306.746 134.132 307.063C135.086 307.414 136.104 307.556 137.118 307.482C138.132 307.407 139.119 307.116 140.011 306.629C140.904 306.142 141.682 305.47 142.294 304.658C142.906 303.846 143.338 302.913 143.56 301.921C143.954 300.721 144.185 299.992 145.274 299.35C146.362 298.707 147.125 298.938 148.342 299.264C149.297 299.613 150.315 299.754 151.328 299.679C152.342 299.603 153.328 299.312 154.22 298.826C155.112 298.339 155.89 297.668 156.503 296.857C157.115 296.045 157.547 295.113 157.77 294.121C158.156 292.921 158.396 292.193 159.485 291.55C159.706 291.43 159.902 291.267 160.061 291.071C160.22 290.875 160.338 290.649 160.41 290.407C160.481 290.165 160.505 289.911 160.478 289.661C160.452 289.41 160.376 289.166 160.256 288.945C160.135 288.723 159.973 288.527 159.776 288.368C159.58 288.209 159.355 288.091 159.113 288.019C158.624 287.875 158.098 287.93 157.65 288.173C156.758 288.668 155.981 289.345 155.368 290.16C154.755 290.975 154.321 291.91 154.093 292.904C153.708 294.104 153.468 294.833 152.379 295.476C151.291 296.118 150.528 295.878 149.302 295.561C148.348 295.208 147.329 295.063 146.314 295.137C145.299 295.21 144.312 295.5 143.418 295.988C142.525 296.475 141.746 297.148 141.135 297.962C140.524 298.775 140.094 299.71 139.874 300.704C139.48 301.904 139.24 302.632 138.16 303.275C137.08 303.918 136.309 303.687 135.083 303.361C134.129 303.012 133.111 302.87 132.097 302.946C131.084 303.022 130.098 303.312 129.206 303.799C128.313 304.286 127.535 304.957 126.923 305.768C126.311 306.579 125.878 307.512 125.655 308.503C125.269 309.703 125.029 310.432 123.941 311.075C123.719 311.195 123.523 311.358 123.365 311.554C123.206 311.75 123.087 311.976 123.016 312.218C122.944 312.46 122.921 312.713 122.947 312.964C122.973 313.215 123.049 313.459 123.17 313.68C123.29 313.902 123.453 314.098 123.649 314.257C123.845 314.415 124.071 314.534 124.313 314.606C124.554 314.677 124.808 314.7 125.059 314.674C125.31 314.648 125.553 314.572 125.775 314.452H125.792Z" fill="white" stroke="#263238" stroke-width="0.572705" stroke-miterlimit="10"/>
<path d="M129.958 320.58C130.848 320.084 131.623 319.406 132.235 318.591C132.846 317.776 133.279 316.842 133.506 315.849C133.901 314.649 134.141 313.92 135.221 313.277C136.301 312.635 137.072 312.866 138.298 313.192C139.252 313.541 140.27 313.682 141.284 313.607C142.297 313.531 143.283 313.24 144.175 312.754C145.067 312.267 145.846 311.596 146.458 310.784C147.07 309.973 147.502 309.041 147.726 308.049C148.111 306.841 148.351 306.121 149.44 305.478C150.528 304.835 151.291 305.067 152.517 305.392C153.471 305.743 154.49 305.885 155.504 305.81C156.518 305.735 157.504 305.445 158.396 304.958C159.289 304.471 160.067 303.799 160.679 302.987C161.291 302.175 161.723 301.242 161.945 300.25C162.339 299.041 162.571 298.321 163.659 297.678C164.107 297.434 164.439 297.022 164.583 296.532C164.727 296.043 164.67 295.516 164.426 295.069C164.182 294.621 163.77 294.288 163.28 294.144C162.791 294.001 162.264 294.057 161.816 294.301C160.926 294.797 160.15 295.474 159.538 296.289C158.927 297.104 158.494 298.039 158.268 299.033C157.874 300.233 157.642 300.961 156.554 301.561C155.465 302.161 154.702 301.972 153.485 301.647C152.531 301.298 151.513 301.156 150.499 301.232C149.486 301.307 148.5 301.598 147.608 302.085C146.716 302.572 145.937 303.243 145.325 304.054C144.713 304.865 144.281 305.798 144.057 306.789C143.663 307.989 143.432 308.718 142.343 309.361C141.255 310.003 140.492 309.763 139.275 309.446C138.32 309.093 137.301 308.948 136.287 309.022C135.272 309.095 134.284 309.385 133.391 309.873C132.497 310.36 131.719 311.033 131.108 311.847C130.496 312.66 130.066 313.595 129.847 314.589C129.452 315.789 129.221 316.517 128.133 317.16C127.685 317.404 127.352 317.817 127.208 318.306C127.065 318.796 127.121 319.322 127.365 319.77C127.61 320.218 128.022 320.55 128.511 320.694C129.001 320.838 129.527 320.781 129.975 320.537L129.958 320.58Z" fill="white" stroke="#263238" stroke-width="0.572705" stroke-miterlimit="10"/>
<path d="M120.573 217.48C118.799 217.84 107.511 223.754 105.343 224.903C102.891 224.689 90.1979 223.574 88.4323 223.934C86.4695 224.329 87.8152 241.179 91.415 240.862C94.6634 240.579 104.734 233.319 106.74 231.862C109.14 232.437 121.242 235.239 124.344 234.254C127.79 233.131 122.527 217.06 120.573 217.48Z" fill="#263238" stroke="#263238" stroke-width="0.572705" stroke-miterlimit="10"/>
<path d="M334.718 111.201C338.268 111.201 341.146 108.323 341.146 104.773C341.146 101.222 338.268 98.3444 334.718 98.3444C331.168 98.3444 328.29 101.222 328.29 104.773C328.29 108.323 331.168 111.201 334.718 111.201Z" fill="white" stroke="#263238" stroke-width="0.572705" stroke-linejoin="round"/>
<path d="M84.875 140.77C88.4252 140.77 91.3032 137.892 91.3032 134.342C91.3032 130.792 88.4252 127.914 84.875 127.914C81.3248 127.914 78.4468 130.792 78.4468 134.342C78.4468 137.892 81.3248 140.77 84.875 140.77Z" fill="#263238" stroke="#263238" stroke-width="0.572705" stroke-linejoin="round"/>
<path d="M117.445 49.9185C120.995 49.9185 123.873 47.0405 123.873 43.4903C123.873 39.9401 120.995 37.0621 117.445 37.0621C113.895 37.0621 111.017 39.9401 111.017 43.4903C111.017 47.0405 113.895 49.9185 117.445 49.9185Z" fill="white" stroke="#263238" stroke-width="0.572705" stroke-linejoin="round"/>
<path d="M80.5893 56.7752C84.1395 56.7752 87.0175 53.8972 87.0175 50.347C87.0175 46.7968 84.1395 43.9188 80.5893 43.9188C77.0391 43.9188 74.1611 46.7968 74.1611 50.347C74.1611 53.8972 77.0391 56.7752 80.5893 56.7752Z" fill="white" stroke="#263238" stroke-width="0.572705" stroke-linejoin="round"/>
<path d="M216.868 266.763C220.418 266.763 223.296 263.885 223.296 260.335C223.296 256.785 220.418 253.907 216.868 253.907C213.317 253.907 210.439 256.785 210.439 260.335C210.439 263.885 213.317 266.763 216.868 266.763Z" fill="#263238" stroke="#263238" stroke-width="0.572705" stroke-linejoin="round"/>
<path d="M14.5932 306.189C18.1434 306.189 21.0214 303.311 21.0214 299.761C21.0214 296.211 18.1434 293.333 14.5932 293.333C11.043 293.333 8.16504 296.211 8.16504 299.761C8.16504 303.311 11.043 306.189 14.5932 306.189Z" fill="white" stroke="#263238" stroke-width="0.572705" stroke-linejoin="round"/>
<path d="M201.439 367.043C204.99 367.043 207.868 364.165 207.868 360.615C207.868 357.065 204.99 354.187 201.439 354.187C197.889 354.187 195.011 357.065 195.011 360.615C195.011 364.165 197.889 367.043 201.439 367.043Z" fill="white" stroke="#263238" stroke-width="0.572705" stroke-linejoin="round"/>
<path d="M70.3047 369.614C73.8549 369.614 76.7329 366.736 76.7329 363.186C76.7329 359.636 73.8549 356.758 70.3047 356.758C66.7545 356.758 63.8765 359.636 63.8765 363.186C63.8765 366.736 66.7545 369.614 70.3047 369.614Z" fill="white" stroke="#263238" stroke-width="0.572705" stroke-linejoin="round"/>
<path d="M386.572 177.625C390.122 177.625 393 174.747 393 171.197C393 167.647 390.122 164.769 386.572 164.769C383.022 164.769 380.144 167.647 380.144 171.197C380.144 174.747 383.022 177.625 386.572 177.625Z" fill="white" stroke="#263238" stroke-width="0.572705" stroke-linejoin="round"/>
<path d="M287.149 28.4913C290.7 28.4913 293.578 25.6133 293.578 22.0631C293.578 18.5129 290.7 15.6349 287.149 15.6349C283.599 15.6349 280.721 18.5129 280.721 22.0631C280.721 25.6133 283.599 28.4913 287.149 28.4913Z" fill="white" stroke="#263238" stroke-width="0.572705" stroke-linejoin="round"/>
<path d="M313.719 58.4894C317.269 58.4894 320.147 55.6114 320.147 52.0613C320.147 48.5111 317.269 45.6331 313.719 45.6331C310.169 45.6331 307.291 48.5111 307.291 52.0613C307.291 55.6114 310.169 58.4894 313.719 58.4894Z" fill="#263238" stroke="#263238" stroke-width="0.572705" stroke-linejoin="round"/>
<path d="M286.291 60.2037C289.842 60.2037 292.72 57.3257 292.72 53.7755C292.72 50.2253 289.842 47.3473 286.291 47.3473C282.741 47.3473 279.863 50.2253 279.863 53.7755C279.863 57.3257 282.741 60.2037 286.291 60.2037Z" fill="white" stroke="#263238" stroke-width="0.572705" stroke-linejoin="round"/>
<path d="M289.72 365.329C293.27 365.329 296.148 362.451 296.148 358.901C296.148 355.35 293.27 352.472 289.72 352.472C286.17 352.472 283.292 355.35 283.292 358.901C283.292 362.451 286.17 365.329 289.72 365.329Z" fill="#263238" stroke="#263238" stroke-width="0.572705" stroke-linejoin="round"/>
</svg>
