<svg width="117" height="26" viewBox="0 0 117 26" fill="none" xmlns="http://www.w3.org/2000/svg">
<path d="M19.0743 1.2365V14.887C19.0743 19.4372 17.1094 21.3281 12.4861 21.3281C7.86283 21.3281 5.89794 19.4372 5.89794 14.887V0.645569H1.44803C1.04349 0.645569 0.870117 0.822848 0.870117 1.2365V15.0643C0.870117 22.6873 5.60898 25.3465 12.4861 25.3465C19.3633 25.3465 24.1021 22.6873 24.1021 15.0643V0.645569H19.6522C19.3055 0.645569 19.0743 0.822848 19.0743 1.2365Z" fill="#AEC0CE"/>
<path d="M83.6269 4.6048C83.9737 4.6048 84.147 4.48662 84.2626 4.19115L85.534 0.941034C85.5918 0.763755 85.534 0.645569 85.3607 0.645569H67.4454C65.7695 0.645569 65.1338 1.17741 65.1338 2.35927V23.5146C65.1338 24.5192 65.5961 24.9328 66.9253 24.9328H83.6269C83.9737 24.9328 84.147 24.8146 84.2626 24.5192L85.534 21.269C85.5918 21.0918 85.534 20.9736 85.3607 20.9736H70.046V16.6598C70.046 15.1825 70.8551 14.4733 72.9934 14.4733H79.6393C79.9861 14.4733 80.1595 14.3552 80.275 14.0597L81.4887 10.9278C81.5464 10.7505 81.4887 10.6323 81.3153 10.6323H69.9882V4.6048H83.6269Z" fill="#AEC0CE"/>
<path fill-rule="evenodd" clip-rule="evenodd" d="M54.847 6.79124C54.847 9.09587 54.0379 11.0459 52.073 12.1096C54.7314 12.8778 55.945 15.3006 55.8872 18.1962C55.8872 23.0418 52.5354 24.9328 47.8543 24.9328H35.4292C34.1 24.9328 33.6377 24.5192 33.6377 23.5146V2.35927C33.6377 1.17741 34.2734 0.645569 35.9493 0.645569H46.1206C50.5705 0.645569 54.847 1.41378 54.847 6.79124ZM38.6077 4.54571H46.4673C49.0679 4.54571 49.8192 5.55029 49.8192 7.67764C49.8192 9.7459 49.0679 10.8096 46.4673 10.8096H38.6077V4.54571ZM47.392 21.0327H38.6077V16.6007C38.6077 15.1234 39.4168 14.4142 41.5551 14.4142H47.392C50.1659 14.4142 50.975 15.537 50.975 17.7235C50.975 19.969 50.1659 21.0327 47.392 21.0327Z" fill="#AEC0CE"/>
<path fill-rule="evenodd" clip-rule="evenodd" d="M111.309 15.1825L116.625 24.5192C116.741 24.6373 116.741 24.9328 116.337 24.9328H111.829C111.496 24.9328 111.376 24.769 111.213 24.5464C111.207 24.5374 111.2 24.5283 111.193 24.5192L106.396 15.6552H102.004C99.8661 15.6552 99.057 16.3643 99.057 17.8416V24.9328H94.7227C94.3181 24.9328 94.1448 24.7555 94.1448 24.3419V2.35927C94.1448 1.17741 94.7805 0.645569 96.4564 0.645569H106.628C112.522 0.645569 116.105 2.24108 116.105 8.15038C116.105 12.7005 113.967 14.4733 111.309 15.1825ZM99.057 11.9323H107.321C110.442 11.9323 111.078 10.6914 111.078 8.20948C111.078 5.78666 110.384 4.54571 107.321 4.54571H99.057V11.9323Z" fill="#AEC0CE"/>
</svg>
